<?xml version="1.0" encoding="utf-8"?>
<!-- Generator: Adobe Adobe Illustrator 24.2.0, SVG Export Plug-In . SVG Version: 6.00 Build 0)  -->
<svg version="1.1" id="Layer_1" xmlns="http://www.w3.org/2000/svg" xmlns:xlink="http://www.w3.org/1999/xlink" x="0px" y="0px"
	 width="1728px" height="1728px" viewBox="0 0 1728 1728" style="enable-background:new 0 0 1728 1728;" xml:space="preserve">
<style type="text/css">
	.st0{fill:#BE0127;}
	.st1{fill:#920D25;}
	.st2{fill:#B7B8B9;}
	.st3{fill:#E33453;}
	.st4{fill:#7F0010;}
	.st5{fill:#580E1F;}
	.st6{fill:#470C1A;}
	.st7{fill:#602B33;}
	.st8{fill:#79112B;}
	.st9{fill:#67A1C0;}
	.st10{fill:#E5AB4E;}
	.st11{fill:#3C5A29;}
	.st12{fill:#01FC3F;}
	.st13{fill:#A27E85;}
	.st14{fill:#B5FEC7;}
	.st15{fill:#77FE99;}
</style>
<path class="st0" d="M732.17,387.22c5.82-6.58,12.81-10.88,19.53-15.45c55.13-37.47,116.01-56.48,182.74-56.59
	c21.86-0.04,43.6,1.11,65.77,6.39c2.31,1.14,4.03,0.73,6.14,1.41c1.49,0.49,2.48,0.61,4.17,1.02
	c43.32,16.55,80.6,41.12,113.44,72.65c27.87,26.76,54.12,54.89,75.21,87.46c2.49,3.85,7.57,8.13,4.44,12.65
	c-3.67,5.28-9.5,1.29-14.08-0.22c-51.09-16.76-103.57-27.03-156.82-33.5c-7.97-0.97-16.16-2.01-24.3-1.28
	c16.57-0.09,32.9,2.1,48.89,6.21c62.82,16.15,124.76,35.13,185.06,59.11c18.68,7.43,36.53,16.85,54.68,25.52
	c11.37,5.43,22.27,11.89,35.05,13.81c4.82,0.73,9.12,3.24,12.54,6.59c7.16,7.01,15.46,12.25,24.98,17.03
	c0.78,0.11,1.3,0.49,1.4,0.79c-0.44,1.39-0.16,2.22,1.18,3.54c0.15,5.65-3.77,5.85-7.01,5.98c-6.09,0.25-9.95,3.07-13.11,8.2
	c-7.28,11.8-18.58,18-31.91,20.04c-22.73,3.47-44.93,2.82-67.78-2.96c-81.66-20.66-159.68-51.29-237.21-83.47
	c-12.59-5.22-24.72-11.55-36.29-18.85c-18.3-11.55-23.28-26.31-15.65-46.28c3.24-8.47,3.07-8.67-8.43-9.31
	c-17.87,3.38-35.33,1.79-52.52,5.56c-31.49,6.91-60.76,18.17-86.09,38.3c-16.07,12.77-34.24,17.67-54.29,17.39
	c-9.21-0.13-18.55-0.75-26.94,6.22c-21.77,19.91-32.1,45.24-36.05,72.51c-6.11,42.19-0.56,83.63,15.72,123.15
	c20.71,50.26,56.43,86.1,106.38,107.7c6.52,2.82,13.56,4.66,19.49,10.28c2.58,14.9,1.97,29.05,0.47,44.07
	c-4.22,7.49-11.39,6-17.29,7.62c-4.18,1.14-8.4,2.2-13.58,2.68c-17.04-6-31.21-15.58-44.65-26.01
	c-35.32-27.4-66.14-58.99-88.31-98.31c-16.18-28.69-25.18-59.64-29.05-92.13c-8.46-70.95,1.81-139.36,28.16-205.63
	c9.49-23.86,20.89-46.7,33.64-68.92c2.56-4.47,5.82-8.38,9.15-13.15c0.1-0.8,0.3-0.91,0.22-0.82c1.91,0.81,1.85-0.83,2.7-2.43
	c0.44-0.49,0.38-0.66,0.45-0.61c0.34-0.32,0.61-0.68,1.47-1.37c0.59-0.33,0.59-0.64,0.75-0.62c0.31-0.32,0.46-0.66,1.16-1.18
	c0.54-0.17,0.93-0.98,1.37-1.06c1.26-0.27,1.98-0.64,2.91-1.75c0.32-0.53,0.32-0.29,0.21-0.31
	C730.8,388.56,731.36,388.15,732.17,387.22z"/>
<path class="st0" d="M1200.21,847.04c-29.7,13.96-56.85,30.66-83.78,47.85c-23.88,15.24-49.5,26.87-78.24,32.94
	c-5.25,4.88-5.84,9.94-3.41,16.06c3.39,8.53,5.97,17.37,9.55,25.87c7.84,18.62,9.31,38.46,8.22,58.2
	c-1.75,31.61-4.95,63.14-12.07,94.11c-1.07,4.66-2.1,9.31-5.29,14.06c-11.49,5.48-23.36,3.27-34.74,4.83
	c-23.37,3.2-45.04,10.48-65.66,21.72c-23.97,13.06-48.04,25.87-73.99,34.85c-34.33,11.87-69.19,12.83-103.78,3.48
	c-33.74-9.12-61.48-28.81-84.75-55.88c-1.95-7.16,2.69-9.94,6.91-12.81c23.34-15.94,46.21-32.54,67.8-50.78
	c25.71-21.72,51.63-43.33,73.13-69.47c6.08-7.39,12.82-6.15,20.89-3.54c13.62,14.6,15.37,14.93,37.6,7.01
	c9.31-0.9,17.75-0.05,26.27,0.55c25.81,1.81,51.21-0.84,74.98-11.74c23.33-10.69,32.31-34.91,21.98-56.15
	c-2.93-6.02-6.79-8.86-13.67-7.79c-13.51,2.1-27.15,2.11-40.79,2.55c-24.27,0.77-46.45-6.09-68.61-16.94
	c-2.04-2.2-3.06-4.04-3.15-6.08c-0.83-19.26-2.03-38.52,0.83-58.6c4.01-4.64,8.5-3.81,12.84-3.13c24.87,3.92,49.9,5.69,75.05,4.88
	c26.83-0.87,53.53-3.1,80.17-11.55c10.03-0.22,17.94-4.68,26.19-7.75c25.97-9.67,50.97-20.81,72.09-39.75
	c26.57-23.83,45.31-52.36,57.26-85.8c8.33-23.3,13.01-47.28,15.17-71.84c0.3-3.38,0.13-6.87,2.86-10.37
	c7.8-3.26,14.5-0.76,21.99,1.7c3.35,3.66,3.21,7.42,2.95,11.17c-4.62,65.11-18.45,128.37-38.35,190.41
	C1203.78,841.91,1202.76,844.39,1200.21,847.04z"/>
<path class="st0" d="M942.16,1349.42c-35.87,34.6-77.7,55.43-127.54,61.55c-25.13,2.63-48.19,2.15-70.27-11.8
	c-35.5-22.43-66.07-50.02-93.72-81.28c-19.65-22.21-39.01-44.65-53.47-70.7c-8.88-16.01-18.41-31.86-21.76-51.06
	c9.09-9.42,19.61-14.8,32.85-16.25c25.43,8.23,50.09,16.05,75.07,22.8c46.14,12.45,92.99,19.96,140.74,23.4
	c50.5,3.64,100.57-0.11,150.75-4.07c8.8-0.69,17.65-0.97,27.3-1.35c5.7,2.41,4.41,6.46,3.03,9.77
	c-15.49,36.92-30.39,74.14-52.99,107.55c-2.29,3.39-5.57,5.95-8.4,9.87C943.12,1348.33,942.72,1349.08,942.16,1349.42z"/>
<path class="st0" d="M478.02,1193.98c0.47-5.3,2.75-9.19,4.89-13c16.36-29.19,35.24-56.67,57.36-82.73
	c42.69-36.64,86.45-70.86,130.37-104.83c39.91-30.86,81.07-60.03,126.08-83.32c13.8-7.14,28.72-10.26,44.18-14.46
	c2.2-0.87,3.77-1.11,6.17-1.32c8.98-0.33,16.27,2.07,23.34,7.67c8.62,13.79,7.26,27.47,2.32,42.05
	c-3.62,6.32-6.09,12.37-10.18,18.33c-0.8,0.88-1.14,1.22-2.49,2.51c-1.64,1.65-2.26,2.35-3.29,3.62c-0.78,0.91-1.11,1.25-2,2.08
	c-24.99,21.74-51.13,40.9-76.06,61.5c-24.67,20.39-48.49,41.83-73.42,61.94c-31.92,25.76-66.06,48.21-102.05,67.84
	c-27.55,15.02-54.11,31.7-80.8,48.16c-10.22,6.3-20.92,8.46-32.11,3.33C482.59,1209.78,476.12,1204.83,478.02,1193.98z"/>
<path class="st1" d="M718.5,398.45c2.32,2.82,0.24,4.83-1.23,7.13c-8.62,13.5-16.04,27.67-23.32,41.93
	c-13.99,27.4-23.66,56.49-32.12,85.86c-5.7,19.78-9.35,40.13-11.67,60.79c-2.94,26.24-2.73,52.54-1.02,78.55
	c2.11,32.19,9.41,63.82,24.07,93.08c11.94,23.82,26.9,45.66,45.37,64.95c20.51,21.43,41.87,41.9,67.46,57.35
	c6.99,4.22,14.07,8.27,21.78,12.67c0.89,3.87-2.06,4.67-4.42,5.45c-9.12,3.01-17.43,8.4-28.03,9.31
	c-8.64-1.82-14.74-6.02-20.46-11.84c-13.51-13.75-26.88-27.78-44.32-38.13c-6.85-6.99-14.29-11.6-24.16-14.89
	c0.66-4.6-2.14-5.68-4.61-6.81c-7.75-3.52-15.46-7.15-23.33-10.37c-8.59-3.52-13.24-9.88-16.04-18.56
	c-9.95-30.89-16.85-62.46-22.08-94.45c-4.12-25.24-9.09-50.4-8.93-76.08C612.04,547.43,646.13,464.87,718.5,398.45z"/>
<path class="st2" d="M1436.49,725.17c20.16,5.88,37.07,15.53,50.89,30.46c25.53,27.57,21.13,71.45-0.99,92.93
	c-5.57,5.41-12.2,8.78-19.26,11.22c-12.53,4.34-25.18,8.39-37.94,11.97c-13.83,3.88-27.73,7.38-37.88,18.61
	c-1.98,2.18-3.99,1.75-6.45,0.91c-10.95-3.75-21.93-7.4-32.95-10.92c-4.75-1.52-5.77-4.2-3.52-8.49
	c4.66-8.93,10.82-16.33,19.69-21.56c13.59-8,28.91-9.58,43.84-12.75c13.65-2.89,27.28-5.9,39.08-14.04
	c14.92-10.28,16.82-26.81,4.76-40.34c-15.41-17.3-49.47-28.34-77.15-15.74c-1.86,0.85-3.72,1.7-5.52,2.67
	c-2.76,1.48-4.55,0.64-5.49-2.2c-3.33-10-6.64-20.02-9.94-30.03c-1.41-4.27-0.07-7.29,4.17-8.99c8.53-3.43,17.05-7.32,26.3-7.89
	C1404.12,720,1420.15,719.88,1436.49,725.17z"/>
<path class="st1" d="M1241.23,639.92c-7.66-0.51-14.4-3.94-22.54-3.15c-6.8,1.93-12.03-1.9-18.47-2.11
	c-68.73-14.96-134.03-37.15-195.63-69.79c-17.86-9.46-34.42-20.78-50.07-33.48c-7.2-5.84-12.95-13.03-17.84-20.92
	c-10.94-17.65-6.63-32.91,11.98-42.17c1.23-0.61,2.36-1.36,4.1-2.62c3.67-0.64,6.75-1.03,9.79-0.86c7.42,0.42,8.93,3.24,4.99,9.72
	c-5.66,9.29-7.47,18.86-3.35,29.22c3.05,7.65,8.76,12.8,15.55,17.03c18.88,11.75,39.18,20.59,59.76,28.74
	c49.01,19.42,97.93,39.12,148.27,54.99c21.71,6.84,43.94,11.77,65.75,18.17c13.51,3.96,27.03,7.23,41.11,5.78
	c10.75-1.11,21.68-1.07,32.19-4.27c11.27-3.43,20.01-9.69,24.8-20.87c1.6-3.74,4.8-5.34,9.03-5.52c3.53-0.15,7.6,1.68,10.74-2.73
	c-0.04-1.12-0.31-1.5-0.13-2.42c1.51,0.77,2.75,1.98,3.62,3.41c10.39,17.05,6.09,31.66-12.06,40.27
	c-12.52,5.94-26.06,7.74-39.7,8.39c-18.4,0.89-36.77,0.23-56.02-2.12c-5.8-2.12-10.23,1.19-14.96,0.98
	C1248.44,643.41,1244.58,643.79,1241.23,639.92z"/>
<path class="st3" d="M1370.16,589.54c-8.09,1.92-14.25-2.87-19.36-7.91c-8.31-8.19-17.2-14.17-29.15-14.87
	c-1.95-0.11-3.92-1.12-5.73-2.02c-15.54-7.75-31.35-14.96-46.93-22.61c-33.11-16.25-67.52-28.8-102.86-39.13
	c-19.58-5.72-38.84-12.53-58.33-18.56c-30.19-9.34-60.78-17.07-92.11-21.53c-3.32-0.47-6.72-0.37-10.17-2.29
	c4.94,0,9.89-0.04,14.83,0.01c5.45,0.06,10.95-0.22,16.35,0.38c28.65,3.2,57.08,7.89,85.2,14.18c23.54,5.27,46.75,11.86,69.7,19.33
	c3.41,1.11,6.7,3.41,11.75,2.1c-3.39-8.49-8.98-15.18-13.83-22.18c-22.06-31.79-49.31-58.97-77.23-85.45
	c-16.6-15.75-36-27.8-55.45-39.72c-14.52-8.9-29.67-16.52-45.33-24.42c17.33,2.07,33.81,8.53,50.04,15.48
	c47.81,20.5,88.18,51,121.76,90.79c17.29,20.49,31.03,43.08,42.58,67.08c3.3,6.85,7.26,11.28,14.71,14.02
	c28.16,10.33,55.34,22.94,80.97,38.58C1339.18,561.56,1356.67,572.62,1370.16,589.54z"/>
<path class="st3" d="M943.75,1348.2c-0.63-2,0.22-3.75,1.51-5.43c15.94-20.86,27.28-44.26,37.95-68.08
	c7.47-16.67,14.97-33.31,21.72-51.07c-0.55-3.87,0.18-6.8,1.38-9.67c9.61-22.94,16.83-46.67,23.42-70.61
	c0.54-1.97,1.3-3.87,3.19-6.06c7.03-22.78,10.65-45.46,13.17-68.4c1.74-15.84,3.57-31.71,3.58-47.59
	c0.02-19.67-1.79-39.11-10.8-57.44c-5.01-10.19-7.45-21.65-11.11-32.73c3.25-1.16,5.76-2.05,8.95-3.04c1.15,2.73,3.1,4.71,4.7,6.9
	c26.39,36.12,35.38,77.16,32.2,120.88c-6.05,83.32-34.53,159.28-78.3,229.84C981.06,1308.65,964.26,1329.66,943.75,1348.2z"/>
<path class="st1" d="M477.68,1193.82c0.04,16.09,23.29,26.03,40.82,15.78c9.68-5.66,19.09-11.77,28.59-17.72
	c21.61-13.53,43.72-26.22,65.99-38.61c30.05-16.7,58.15-36.22,85.4-57.15c23.17-17.79,45.23-36.9,67.23-56
	c16.47-14.3,34.32-26.63,50.96-40.54c10.66-8.91,21.61-17.56,31.77-27.08c1.72-1.62,3.24-3.57,6.63-3.61
	c2.64,6.03-2.59,9.48-4.62,14.87c-8.58,6.99-5.13,17.15-9.1,25.54c-10.97-2.33-17.05,1.84-24.21,10.05
	c-16.97,19.45-36.48,36.55-56.15,53.44c-26.87,23.07-55.05,44.26-84.35,64.05c-1.77,1.19-3.15,2.58-3.77,5.46
	c-21.66,13.22-42.35,27.1-64.94,39.22c-6.97-0.28-11.49,3.98-16.7,6.3c-4.66,2.08-9.08,4.67-14.04,7.61
	c-1.68,1.94-3.22,2.61-5.74,2.34c-19.92,8.38-39.19,16.88-59.86,21.52c-7.31,1.64-14.71,2.8-22.22,2
	c-12.73-1.36-17.39-7.81-14.6-20.15C475.3,1198.81,476.32,1196.62,477.68,1193.82z"/>
<path class="st4" d="M571.29,1198.29c0.75-2.13,2.42-2.39,4.85-2.33c9.51,28.99,24.24,55.03,42.24,79.08
	c20.8,27.78,43.68,53.87,69.16,77.53c24.28,22.55,50.67,42.14,80.96,56.1c3.82,1.76,7.56,2.73,11.76,2.66
	c10.56-0.16,21.13-0.07,32.58-0.29c-38.51,5.38-75.76-1.55-110.94-19.79c-34.16-17.71-60.33-44.13-81.27-76
	C597.15,1279.52,582.36,1240.1,571.29,1198.29z"/>
<path class="st4" d="M557.41,1077.82c-1.48-38.48,3.19-75.9,16.36-111.89c19.93-54.46,56.9-93.01,110.83-116.11
	c0.75-0.04,0.72,0.06,0.77,0.1c-3.47,11.2-13.23,17.65-21.84,22.78c-17.03,10.13-28.11,24.6-37.34,41.06
	c-24.31,43.34-38.26,90.25-47.07,139.68C575.13,1064.87,567.47,1072.22,557.41,1077.82z"/>
<path class="st3" d="M556.22,1078.01c7.91-6.85,14.55-13.94,20.25-22.77c7.34-12.09,17.53-20.76,27.3-29.56
	c31.36-28.25,64.65-54.05,101.25-76.66c19.2-11.38,38.17-21.62,57.59-31.04c3.33-1.61,6.49-3.62,11-4.26
	c6.46,0.44,10.91-3.27,15.98-4.87c6.07-1.92,11.94-4.45,18.4-7.26c10.15-2.49,19.8-4.44,30.26-6.48c1.26,0.07,1.71,0.25,2.61,0.98
	c-4,4.19-9.76,3.74-14.87,5.2c-19.55,5.56-37.08,15.22-54.4,25.44c-33.46,19.74-64.96,42.39-95.98,65.65
	c-25.28,18.95-49.36,39.48-74.23,58.99c-18.72,14.69-37.13,29.76-55.43,44.96c-0.98,0.82-2.48,1.02-4.44,1.48
	C544.63,1090.45,550.99,1085.08,556.22,1078.01z"/>
<path class="st3" d="M1240.65,640.09c7.99,2.46,16.43-0.25,25.01,1.82c-7.86,1.26-8.09,1.24-8.52,8.81
	c-3.33,58.79-19.05,115.18-33.07,171.9c-3.12,12.63-10.82,20.86-23.72,25.08c6.83-28.5,16.3-56.47,22.5-85.34
	c5.69-26.47,10.85-52.99,13.87-79.96C1238.26,668.6,1238.69,654.72,1240.65,640.09z"/>
<path class="st2" d="M1366.72,962.62c-22.39,5.98-38.36-2.86-42.71-22.91c-2.6-11.97,3.43-25.57,14.26-32.19
	c11.22-6.85,25.01-5.7,35.19,2.39c18.6,14.78,13.08,41.78-2.53,50.26C1369.74,960.8,1368.62,961.58,1366.72,962.62z"/>
<path class="st3" d="M1006.4,322.89c-1.31,0.95-2.99,0.83-5.01-0.53C1002.74,321.25,1004.36,321.79,1006.4,322.89z"/>
<path class="st1" d="M721.83,395.43c0.39,1.19,0.08,2.45-1.99,2.96C719.87,397.39,720.56,396.48,721.83,395.43z"/>
<path class="st3" d="M941.74,1350c-0.15-0.24,0.02-0.55,0.11-0.56c0.09-0.01,0.46,0.42,0.46,0.42S941.89,1350.24,941.74,1350z"/>
<path class="st1" d="M731.96,386.94c0.11,0.45-0.34,1-1.3,1.74C730.57,388.25,730.99,387.65,731.96,386.94z"/>
<path class="st1" d="M729.77,388.79c0.09,0.49-0.43,1.11-1.57,1.9C728.12,390.21,728.63,389.57,729.77,388.79z"/>
<path class="st1" d="M725.92,391.84c0.16,0.39-0.15,0.73-0.84,1.19C724.73,392.6,724.97,392.15,725.92,391.84z"/>
<path class="st1" d="M723.99,393.54c0.2,0.46-0.2,0.91-1.09,1.47C722.53,394.49,722.86,393.96,723.99,393.54z"/>
<path class="st3" d="M1371.71,591.77c0.06,0.7,0.11,1.07,0.04,2c-0.48-0.16-0.85-0.87-0.92-2.11
	C1371.12,591.13,1371.69,591.44,1371.71,591.77z"/>
<path class="st5" d="M952.56,465.21c1.04,3.63-2.2,4.06-4.37,5.44c-16.75,10.6-19.17,22.72-8.72,39.6
	c9.07,14.65,22.63,24.38,36.22,33.91c23.21,16.29,48.84,28.24,74.66,39.79c21.44,9.6,43.31,18.1,65.66,25.24
	c27.14,8.67,54.53,16.58,83.03,22.89c3.56,4.01,3.36,8.22,2.78,12.24c-6.63,46.07-18.93,90.07-48.21,127.54
	c-13.31,17.03-29.21,31.42-47.34,43.23c-19.12,12.46-38.33,24.78-57.85,38.04c-12.13,4.55-24,7.24-36.09,8.95
	c-18.82,2.66-37.72,4.2-56.76,4.17c-23.79-0.03-47.44-1.46-70.83-6.03c-1.65-0.32-3.39-0.2-5.97-0.32
	c-4.17-3.35-3.44-7.63-3.48-11.64c-0.12-13.98-0.13-27.96-0.02-41.94c0.11-12.73,1.4-14.11,13.2-18.54
	c41.28-15.49,67-44.66,75.36-88.08c12-62.32-32.92-122.9-95.5-132.41c-52.25-7.94-107.93,24.58-124.88,78.7
	c-1.39,4.43-0.78,10.72-8.38,11.58c-3.91-3.9-4.89-8.4-4.94-12.7c-0.44-36.23-3.21-72.52,2.2-109.6c4.91-7.08,11.48-8.98,18.94-9.24
	c10.16-0.35,20.29,0.33,30.49-1.51c10.68-1.92,20.51-5.41,28.69-12.2c31.95-26.53,69.66-38.82,109.82-45.08
	c6.34-0.99,12.91-0.51,19.38-0.55C943.75,466.67,947.82,466.63,952.56,465.21z"/>
<path class="st6" d="M731.85,534.65c4.32,3.43,3.21,8.17,2.12,12.15c-1.39,5.06-1.42,10.04-1.42,15.1
	c-0.03,21.39,0.06,42.79-0.05,64.18c-0.05,10.16-0.14,20.29,3.56,30.67c3.58,3.56,3.46,7.46,3.1,11.13
	c-4.21,42.92,11.96,77.12,44.43,104.41c1.04,0.88-0.32-0.17,1.09,1.42c9.03,18.69,24.83,30.18,39.08,43.08
	c5.27,4.77,11.7,8.07,16.97,14.01c1.46,5.95,1.85,11.11-1.2,16.72c-11.23-2.21-20.97-7.09-30.68-12.01
	c-17.68-8.96-33.98-19.96-48.92-33.02c-18.32-16.02-30.26-36.59-41.47-57.67c-14.78-27.8-21.58-57.66-23-88.98
	c-0.35-7.78-1.76-15.5-1.73-23.36c0.08-29.4,8.77-56.25,23.59-81.32C720.97,544.97,725.72,539.6,731.85,534.65z"/>
<path class="st7" d="M784.33,776.58c-9.4-8.97-18.94-16.6-25.97-26.82c-12.36-17.98-20.43-37.13-22.16-59.33
	c-0.83-10.61,1.45-20.87,0.45-32.22c4.68-12.12,7.54-24.01,13.72-34.66c18.84-32.48,46.36-51.92,83.53-58.63
	c29.13-5.26,55.23,2.29,79.98,16.35c14.67,8.34,25.94,20.78,35.46,34.61c9.99,14.52,16.26,30.89,18.21,48.17
	c3.03,26.91-0.91,52.97-16,76.28c-15.83,24.45-36.68,42.59-65.16,51.06c-8.38,2.49-8.39,2.85-8.43,11.38
	c-0.08,18.4-0.03,36.81-0.04,56.15c0.05,19.33,0.1,37.73,0.18,56.12c0.01,3.05-0.34,6.16,1.62,9.77c3.07,3.8,3.42,7.55,3.44,11.33
	c0.14,22.86,0.23,45.72-0.06,68.58c-0.05,4.1-0.44,8.24-4.62,11.9c-3.72,2.16-6.53,4.05-9.62,5.18
	c-11.9,4.34-19.93,1.15-27.91-11.35c-0.09-4.07,0.4-7.51,0.02-10.84c-0.75-6.68,1.31-11.97,7.21-16.44
	c5.76,4.12,3.48,10.3,4.09,15.82c0.58,5.23,0.78,10.73,7.84,10.94c7.63,0.23,8.43-5.43,8.65-11.16c0.68-17.28-0.97-34.6,1.04-52.7
	c3.43-9.77,4.97-18.91,4.28-28.53c-0.33-4.54-1.25-8.6-4.19-12.91c-3.47-5.14-3.24-10.31-3.25-15.42c-0.03-22.13,0-44.26-0.02-66.4
	c-0.01-4.77-0.02-9.53-0.91-14.25c-0.99-5.26-3.36-8.89-9.41-8.55c-6.69,0.37-5.96,5.37-5.95,9.71c0.06,23.49,0.03,46.99,0,70.48
	c-0.01,4.74,0.45,9.57-2.21,14.8c-2.14,1-3.69,1.29-6.03,1.6c-1.43-0.11-1.98-0.41-2.74-1.24c-0.33-15.38-0.37-30.39-0.44-46.32
	c0.01-6.57,0.05-12.21,0.07-18.79c-4.5-7.04-2.67-14.1-2.58-20.72c0.11-7.69-2.42-11.38-10.39-13.31
	C811.19,792.64,796.37,788.29,784.33,776.58z"/>
<path class="st5" d="M607.81,1182.3c-0.2-3.7,2.23-4.91,4.65-6.22c16.03-8.72,31.57-18.23,46.83-28.24
	c3.58-2.35,7.26-5.09,12.71-4.91c20.46,22.43,44.44,39.02,71.5,51.09c10.87,4.85,22.53,7.47,34.56,8.32
	c8.47,0.6,16.9,1.55,25.43,1.8c23.97,0.7,46.64-4.87,68.61-13.63c21.56-8.6,42.02-19.51,62.34-30.74
	c21.05-11.64,43.34-19.37,67.59-21.62c9.87-0.92,19.68-1.27,30.47-1.51c0.44,10.34-3.69,19.79-6.38,29.57
	c-5.25,19.02-12.27,37.44-20.57,56.11c-21.76,2.77-43.18,2.99-64.38,5.88c-1.01,0.14-2.03,0.23-3.05,0.26
	c-32.67,1.07-65.36,3.94-98.01,1.85c-32.49-2.07-64.88-5.12-97.03-11.14c-43.59-8.16-86.08-19.84-127.8-34.63
	C613.03,1183.77,610.66,1183.4,607.81,1182.3z"/>
<path class="st4" d="M878.64,1017.4c1.17-4.87,1.47-9.83,1.45-14.95c-0.14-24.98-0.11-49.96-0.1-75.89c5.5-1.56,9.89,1.7,14.45,3.63
	c27.22,11.56,55.41,11.7,84.01,8.01c5.37-0.69,10.82,0.07,16.15-1.83c3.62-1.29,5.18,2,6.86,4.67
	c15.75,24.97,5.45,52.69-17.27,64.36c-13.99,7.19-28.93,11.59-44.79,12.38c-10.82,0.54-21.66,3.68-32.42,1.66
	C897.84,1017.73,888.73,1018.06,878.64,1017.4z"/>
<path class="st8" d="M1048.61,853.71c-0.33-4.34,2.81-6.27,6.04-8.33c16.88-10.74,33.88-21.3,50.46-32.49
	c24.47-16.52,45.09-36.88,60.12-62.55c15.41-26.35,24.85-54.81,30.25-84.73c1.86-10.31,4.54-20.5,4.08-32.03
	c5.97-1.36,11.52,0.12,17.55,2.89c0.45,31.2-6.03,60.84-17.23,89.52c-7.2,18.45-16.26,35.81-28.62,51.47
	c-20.34,25.75-44.39,46.42-75.22,58.82C1080.62,842.47,1065.5,849.38,1048.61,853.71z"/>
<path class="st9" d="M848.34,895.95c-1.13-31.22-1.34-62.24-1.9-93.25c-0.08-4.21,0.19-6.37,5.05-6.29
	c19.73,0.33,16.49-3.56,17.4,15.5c1.43,29.94,0.83,59.97,0.96,90.99C863.5,899.63,856.8,896.63,848.34,895.95z"/>
<path class="st9" d="M869.25,945.75c2.39,1.83,2.14,4.61,2.16,7.32c0.11,16.37,0.14,32.74,0.36,49.11c0.06,4.34-0.28,8.34-4.8,10.3
	c-4.61,2-9.27,1.91-13.76-0.55c-3.13-1.72-3.69-4.64-3.73-7.85c-0.09-6.48-0.22-12.96-0.53-20.38c0.89-5.73,4.61-9.08,6.74-14.05
	c0.12-0.69,0.06-0.77,0.01-0.78c0.61-1.1,0.75-2.38,1.84-3.78c0.58-0.25,0.32-0.36,0.33-0.22c0.1-0.62,0.45-1.24,1.51-2.03
	C863.98,957.76,866.25,951.97,869.25,945.75z"/>
<path class="st1" d="M857.45,965.02c0.22,0.98-0.22,2.14-1.23,3.57C855.47,967.47,855.62,966.18,857.45,965.02z"/>
<path class="st1" d="M859.29,962.75c0.24,0.47-0.06,1.16-0.89,2.06C858.16,964.33,858.45,963.65,859.29,962.75z"/>
<path class="st0" d="M706.41,949.36c-1.04,2.29-2.2,3.48-3.7,4.37c-28.26,16.88-54.15,37.05-79.43,57.98
	c-15.92,13.18-30.52,27.87-45.87,42.65c-1.35-11.22,3.24-21.7,5.63-32.58c7.85-35.66,20.04-69.79,36.8-102.25
	c5.77-11.19,12.45-21.86,20.47-31.55c4.74-5.74,9.94-11.2,17.2-14.1c2.48-0.99,4.99-2.41,6.89-4.25c6.59-6.37,13.1-12.81,20.65-19.1
	c10.78-0.79,18.47,4.29,24.8,12.79c-0.66,4.08-3.57,5.46-5.97,7.29c-18.02,13.76-22.47,33.04-12.29,53.34
	c2.91,5.8,6.47,11.16,10.79,16.03C704.62,942.48,707.31,944.82,706.41,949.36z"/>
<path class="st4" d="M706.71,949.94c-0.79-3.86-3.96-5.73-6.17-8.21c-7.79-8.76-13.51-18.54-16.09-30.15
	c-3.22-14.53,3.47-32.81,15.64-41.45c2.76-1.96,5.7-3.68,9.19-5.8c6.13-0.43,10.42,2.09,14.02,5.95
	c12.02,12.87,26.94,22.72,38,36.62c2.83,3.55,7.95,3.5,12.25,6.36c-0.71,2.23-2.73,3.41-4.91,4.45
	c-19.62,9.37-38.9,19.37-57.46,30.73C710.07,949.14,708.7,949.42,706.71,949.94z"/>
<path class="st7" d="M1114.94,650.2c4.94,27.74,4.89,54.32-7.95,79.27c-6.98,13.57-17.86,23.78-33.62,25.24
	c-10.03,0.93-19.95-2.01-28.26-8.97c-11.09-9.3-16.42-21.97-19.14-35.23c-4.68-22.82-4.61-45.75,3.3-68.25
	c3.98-11.34,10.85-20.28,19.73-27.96c8.2-7.1,31.23-9.48,43.17-0.13C1104.02,623.46,1110.95,635.23,1114.94,650.2z"/>
<path class="st5" d="M783.81,776.74c11.79,4.95,23.12,11.81,35.98,15.17c3.9,1.02,7.63,2.48,11.82,2.74c6.41,0.4,7.21,1.5,7.37,8.36
	c0.19,8.14,0.04,16.29,0.01,25.39c-9.39-0.65-14.99-8.1-21.45-13.74c-9.62-8.39-19.45-16.7-27.41-26.9
	C787.6,784.5,784.91,781.54,783.81,776.74z"/>
<path class="st10" d="M816.21,578.94c37.09-11.76,70.73-6.49,101.41,16.18c48.1,35.56,56.27,108.09,17.43,153.57
	c-31.02,36.32-77.57,48.86-122.07,31.79c-44.11-16.92-67.33-58.51-68.43-96.86C743.17,635.89,773.81,593.74,816.21,578.94z"/>
<path class="st11" d="M1093.4,737.66c-7.77,5.6-14.77,10.52-24.52,9.99c-7.62-0.41-13.76-3.04-19.35-7.8
	c-9.77-8.31-14.94-19.4-17.61-31.47c-4.77-21.62-3.18-43.04,3.52-64.2c3.49-11.04,11-18.88,19.85-25.17
	c11.76-8.36,26.47-5.91,38.18,4.87c8.91,8.21,13.22,18.93,15.68,30.28c4.46,20.57,3.05,41.05-2.28,61.39
	C1104.62,724.12,1099.09,730.46,1093.4,737.66z"/>
<path class="st7" d="M944.18,648.69c8.43,26.3,7.16,51.31-5.27,75.12c-15.9,30.45-40.84,48.43-75.35,52.76
	c-51.99,6.53-101.51-30.05-107.99-84.25c-7.67-64.27,44.27-109.02,94.95-109.49C888.41,582.49,929.64,606.46,944.18,648.69z"/>
<path class="st12" d="M1098.37,700.84c-1.83,10.34-4.34,19.5-9.56,27.7c-11.65,18.32-28.59,17.78-38.83-1.15
	c-3.95-7.3-6.4-15.11-7.39-23.24c-2.56-21.13-2.98-42.16,5.21-62.41c3.11-7.69,7.17-14.71,14.89-18.81
	c7.39-3.93,13.43-3.47,19.85,1.87c5.36,4.46,8.75,10.27,11.32,16.73C1101.42,660.54,1100.53,680.21,1098.37,700.84z"/>
<path class="st13" d="M781.74,733.55c-11.58-11.66-16.2-26.07-18.15-40.9c-3.76-28.57,3.77-54.43,24.33-75.03
	c22.95-23,50.99-31.56,83.19-25.23c3.33,0.65,6.63,1.43,10.55,2.66c-8.15,7.77-12.34,18.92-21.85,26.46
	c-21.07,2.19-27.54,17.01-31.78,33.84c-1.07,4.25-1.13,8.7-2.49,13.68c-0.25,2.27-0.59,3.76-1.27,5.94
	c-11.74,17.01-22.78,33.6-33.73,50.25C788.36,728.54,786.7,732.49,781.74,733.55z"/>
<path class="st2" d="M837.14,768.47c-13.01-1.69-24.15-6.5-34.87-14.07c4.05-14.8,12.34-26.02,26.57-32.92
	c4.15,1.58,5.53,4.87,7.61,7.51c11.02,14.01,24.49,12.73,32.85-3.31c10.3-19.76,11.53-40.94,9.23-62.59
	c-0.25-2.36-0.9-4.67-0.87-7.86c0.13-1.3,0.22-1.82,0.56-3.07c7.87-12.26,16.98-22.67,25.27-33.69c2.02-2.69,4.04-5.54,8.77-4.77
	c16.49,14.81,26.05,32.56,28.51,54.7c-1.46,3.61-3.58,5.81-5.8,7.95c-30.39,29.33-59.37,59.99-87.55,92.33
	c-2.02,0.5-3.41,0.67-5.5,0.77C840.1,768.96,838.89,768.87,837.14,768.47z"/>
<path class="st13" d="M847.7,769.31c0.13-3.58,1.94-6.41,4.2-8.99c26.35-30.17,53.87-59.23,82.7-87.03c1.45-1.4,3.16-2.51,5.39-3.93
	c7.46,41.97-20.12,87.88-70.1,98.52C862.91,769.36,855.84,770.58,847.7,769.31z"/>
<path class="st2" d="M781.25,733.88c7.64-8.28,12.3-18.15,18.39-26.99c7.04-10.23,13.37-20.96,21.65-31.12
	c6.32,4.16,3.7,10.54,4.11,17.1c-1.6,11.85-10.23,18.88-15.6,27.68c-5.17,8.48-9.5,18-19.49,23.24
	C786.29,741.11,783.21,738.41,781.25,733.88z"/>
<path class="st13" d="M912.57,613.46c-3.1,0.75-4.67,3.24-6.6,5.74c-8.04,10.43-16.34,20.66-25.08,31.34
	c-9.32-1.36-6.6-10.25-10.39-15.96c-0.19-1.29-0.21-1.81-0.12-3.1c6.73-11.43,13.6-21.89,23.85-29.93
	C901.76,603.84,906.28,609.46,912.57,613.46z"/>
<path class="st13" d="M789.88,744.24c7.51-7.58,12.39-16.84,18.27-25.3c4.75-6.83,8.93-14.07,14.47-21.05
	c0.2-1.22,0.36-1.78,1.37-2.2c4.86,6.09,3.2,13.57,6.35,20.67c0.35,2.66,0.11,4.37-1.79,6.12c-7.01,3.17-10.1,9.25-14.44,13.97
	c-4.46,4.85-7.82,10.7-11.98,16.76C797.37,751.58,793.68,748.35,789.88,744.24z"/>
<path class="st2" d="M894.47,601.29c-6.8,9.9-14.04,19.25-21.83,28.98c-6.62,1.91-8.55-4.14-13.12-6.8
	c-0.62-1.04-0.76-1.52-0.52-2.64c5.61-7.62,10.92-14.56,16.06-21.61c1.49-2.04,3.02-3.58,6.46-3.54
	C886.5,596.57,890.29,598.58,894.47,601.29z"/>
<path class="st13" d="M837.06,768.7c0.75-0.32,1.99-0.25,3.7,0.26C840.01,769.29,838.78,769.2,837.06,768.7z"/>
<path class="st14" d="M858.72,622.14c6.16,0.36,8.15,5.57,12.72,8.26c0.66,0.27,0.45,1.27,0.36,1.77c-0.95,3.07-1.66,5.69-3.44,7.84
	c-15.09,18.24-27.63,38.42-43.62,56.68c-0.72,0.15-1.41,0.28-1.74,0.41c-0.44-6.53-0.55-13.18-0.91-20.78
	c0.01-2.3,0.27-3.66,0.67-5.69c8.51-15.42,19.06-28.68,28.72-42.55C853.21,625.59,854.75,622.87,858.72,622.14z"/>
<path class="st15" d="M859.41,621.75c-10.43,12.63-18.81,26.25-28.28,39.08c-2.2,2.98-3.66,6.53-7.58,8.89
	c0.29-8.8,1.77-17.72,5.06-26.24c2.07-5.37,4.61-10.39,8.57-14.74c5.58-6.12,11.97-9.73,21.33-8.53
	C859.37,620.53,859.38,620.88,859.41,621.75z"/>
<path class="st14" d="M828.41,722.98c-0.5-1.62-0.3-2.96-0.03-4.98c10.57-18.72,24.78-34.01,37.26-50.58
	c3.84-5.09,6.9-11.07,13.48-14.34c3.13,10.44,3.05,20.91,3.08,31.41c0.04,15.58-3.86,30.11-11.03,43.8
	c-8.88,16.97-26.03,18.15-37.18,2.64C832.22,728.48,830.73,725.83,828.41,722.98z"/>
<path class="st15" d="M879.93,652.63C865.06,672,850.04,690.6,836,709.95c-1.76,2.43-4.18,4.38-6.93,6.96
	c-4.72-5.26-4.8-11.86-5.02-19.25c9.73-17,21.61-31.69,32.78-46.86c4.38-5.95,9.11-11.65,14.28-17.79
	c4.43,4.89,5.58,11.27,8.66,17.49C880.25,651.29,880.13,651.67,879.93,652.63z"/>
</svg>
