<?xml version="1.0" encoding="utf-8"?>
<!-- Generator: Adobe Adobe Illustrator 24.2.0, SVG Export Plug-In . SVG Version: 6.00 Build 0)  -->
<svg version="1.1" id="Layer_1" xmlns="http://www.w3.org/2000/svg" xmlns:xlink="http://www.w3.org/1999/xlink" x="0px" y="0px"
	 width="1728px" height="1728px" viewBox="0 0 1728 1728" style="enable-background:new 0 0 1728 1728;" xml:space="preserve">
<style type="text/css">
	.st0{fill:#BD0027;}
	.st1{fill:#921027;}
	.st2{fill:#E02F50;}
	.st3{fill:#920D25;}
	.st4{fill:#E22C4E;}
	.st5{fill:#880919;}
	.st6{fill:#E63061;}
	.st7{fill:#480C19;}
	.st8{fill:#404E27;}
	.st9{fill:#580E1F;}
	.st10{fill:#7F000F;}
	.st11{fill:#5A0D1F;}
	.st12{fill:#79112B;}
	.st13{fill:#FFFFFF;}
	.st14{fill:#512021;}
	.st15{fill:#483924;}
	.st16{fill:#02F83E;}
</style>
<g>
	<g>
		<path class="st0" d="M579.04,321.69c7.94-8.85,17.37-14.99,26.58-21.32c45.58-31.34,95.71-50.93,151.64-57.77
			c21.22-2.72,40.5,3.2,59.9,7.27c46.39,9.73,90.81,25.49,134,44.89c15.52,6.97,28.27,17.8,40.46,29.18
			c28.11,26.26,56.86,52.05,77.69,84.94c28.03,44.26,44.21,92.77,51.65,144.49c4.88,33.94,5.13,68.04,4.13,102.12
			c-0.73,24.73-6.19,48.88-12.68,72.79c-6.56,24.16-15.46,47.68-20.29,73.2c-1.28,4.67-4.2,6.84-7.57,8.29
			c-35.09,14.99-66.39,36.7-99.11,55.9c-11.22,6.58-22.95,12.31-35.8,17.4c-15.1,2.48-5.17,9.55-3.43,15.74
			c7.53,18.58,13.53,36.86,20.75,54.67c5.56,13.7,7.64,27.83,8.16,42.49c1.63,45.68-3.72,90.57-14.92,135.75
			c-0.95,1.27-1.43,1.7-2.77,2.56c-14.01,2.95-27.5,0.1-41.52,3.07c-7.94-0.03-12.94-4.56-18.38-8.06
			c-67.92-43.72-138.84-81.32-216.06-106.06c-31.85-10.2-64.21-18.04-97.89-18.54c-9.87-0.15-19.57,1.11-28.44,7.98
			c-13.48,8.42-16.43,22.52-7.73,38.15c6.18,11.1,13.73,21.35,22.68,30.47c32.76,33.41,70.54,60.23,110.79,83.67
			c18.48,10.76,37.05,21.41,56.56,30.29c3.7,1.68,7.35,3.6,5.92,9.45c-1.7,1.49-3.02,2.12-4.49,2.24
			c-45.91,3.73-89.81-0.86-128.59-29.17c-18.26-13.33-35.23-27.76-49.88-45.1c-12.29-14.54-28.71-24.32-44.28-34.91
			c-15.63-10.62-32.65-18.78-50.32-27.4c-3.3-5.4-2.72-10.5-1.7-15.49c10.98-53.5,23.69-106.46,49.81-155.09
			c10.55-19.64,21.91-38.51,42.71-49.53c6.99-3.7,11.59-11,19.55-15.19c11.17-0.11,17.95,5.45,22.37,18.27
			c-3.55,8.56-8.93,15.01-13.76,21.75c-10.41,14.53-10.04,28.96-1.03,43.72c13,21.28,32.97,34.52,54.36,45.65
			c40.38,21,83.65,32.78,128.63,38.67c31.75,4.16,63.53,5.32,95.25-0.07c17.99-3.06,35.62-7.49,50.21-19.35
			c15.84-12.87,19.81-29.8,11.86-48.75c-2.26-5.4-5.73-10.08-8.78-15.02c-9.24-14.97-20.48-21.53-39.73-17.75
			c-43.61,8.55-87.92,8.78-132.2,4.5c-5.17-0.5-10.02-1.51-15.21-4.67c-13.92-7.41-27.76-12.96-41.02-19.76
			c-53.55-27.47-98.97-65.26-136.1-112.11c-30.98-39.09-48.54-84.5-55.34-134.41c-8.51-62.54-0.35-122.88,18.15-182.61
			c12.11-39.11,28.46-76.17,48.99-111.49c3.12-5.37,6.71-10.36,11.47-15.56c0.49-0.7,0.57-0.44,0.43-0.44
			c0.61-0.28,1.25-0.72,2.09-1.82c0.31-0.5,0.32-0.27,0.21-0.28C577.6,323.17,578.19,322.71,579.04,321.69z"/>
		<path class="st0" d="M717.63,1426.15c-1.47,0.4-2.12,0.57-3.76,0.59c-11.59,2.52-22.23,1.68-33.65-0.18
			c-29.29-10.4-53.49-27.54-76.27-46.78c-36.69-31-69.11-66.06-96.89-105.25c-20.07-28.3-35.1-59.12-44.16-92.74
			c-0.98-3.65-1.72-7.02,1.23-10.87c7.14-2.76,12.87,0.23,18.53,2.29c51.09,18.57,102.91,34.51,156.48,44.34
			c23.13,4.24,46.5,6.78,70.59,10.39c3.05,0.73,5.26,1.07,8.38,0.5c11.56-1.38,21.96,2.2,33.48,2.02c4.72,1.23,8.58,2.23,13.4,0.44
			c6.13-1.2,11.44-1.14,17.63-0.37c6.42,1.85,12.02,2.26,18.53,0.52c3.73-0.86,6.66-0.97,10.49-1.07c2.66-0.05,4.44-0.01,7.1-0.01
			c12.98,0.49,23.97,5.44,35.39,8.61c18.75,5.21,38.06,8.03,57.43,14.12c4.82,4.1,3.41,8.5,1.8,12.45
			c-12.17,29.81-26.18,58.69-44.4,85.36c-2.65,3.88-6.53,6.74-10.07,10.95c-0.86,0.88-1.07,1.24-1.76,1.98
			c-0.81,0.74-1.16,1.11-2.15,1.85c-0.88,0.82-1.11,1.26-2.03,1.98c-34.22,30.51-73.15,49.7-118.57,57.38
			C728.67,1427.38,723.42,1425.1,717.63,1426.15z"/>
		<path class="st1" d="M574.09,325.55c-1.02,8.65-7.7,14.78-11.7,22.39c-12.8,24.4-25.99,48.55-35.33,74.62
			c-12.1,33.78-21.68,68.25-27.72,103.58c-2.91,17.04-6.1,34.22-4.93,51.7c2.33,34.56,3.09,69.42,13.47,102.82
			c7.42,23.89,18.24,46.23,31.57,67.7c14.36,23.12,32.36,42.67,51.76,61.18c37.27,35.55,78.9,64.66,126.94,84.03
			c3.01,1.21,5.78,3.01,9.09,5.16c-0.59,6.64-5.38,5.23-8.88,4.73c-33.97-4.86-66.8-13.95-98.04-28.23
			c-9.39-4.29-15.48-12.95-22.93-21.04c-4.1-9.05-9.69-15.32-19.36-18.22c-2.44-1.34-2.48-3.06-1.89-5.57
			c-9.03-6.55-18.29-12.27-27.3-18.37c-13.35-9.05-28.54-14.29-42.94-21.17c-7.79-3.72-12.69-9.31-15.22-17.4
			c-18.52-59.21-32.13-119.72-33.12-181.68C455.88,486.27,494.63,396.94,574.09,325.55z"/>
		<path class="st2" d="M1090.28,804.27c-0.91-14.12,4.8-26.51,8.35-39.36c6.16-22.31,13.73-44.23,17.86-67.09
			c3.15-17.43,6.44-34.8,6.05-52.66c-0.31-14.53,0.36-29.08-0.25-43.59c-1.02-24.55-3.85-48.92-8.58-73.08
			c-6.88-35.13-19.53-68.16-35.85-99.86c-10.18-19.77-23.44-37.5-38.52-53.71c-13.35-14.35-27.48-28-41.54-41.69
			c-20.17-19.64-42.93-34.78-69.51-45.3c-36.15-14.3-72.72-26.78-110.69-34.9c-19.03-4.07-37.86-9.6-58.48-10.17
			c18.03-4.23,37.25-4.19,56.43-3.31c102.72,4.71,186.81,47.42,252.15,126.24c47.37,57.14,71.94,123.64,76.59,197.74
			c2.78,44.43-5.26,87.51-14.39,130.54c-1.2,5.68-2.35,11.36-3.66,18c0.14,1.63,0.54,2.38,0.38,3.03
			c-6.56,26.25-10.02,53.34-21.54,79.13C1101.59,800.26,1098.01,804.84,1090.28,804.27z"/>
		<path class="st3" d="M914.24,1255.74c-29.66-6.45-58.48-13.14-86.79-21.91c-2.04-0.63-4.27-0.62-7.3-0.93
			c-2.73-2.21-5.28-2.18-8.58-2.29c-23.72-6.95-45.26-17.58-68.4-25.86c-0.52-4.13-2.64-5.44-5.57-6.8
			c-44.77-20.77-86.86-46.08-126.02-76.09c-15.19-11.64-29.68-24.2-42.99-38.09c-9.09-9.49-16.49-20.14-23.49-31.09
			c-5.51-8.62-6.12-18.6-4.56-28.38c0.92-5.74,3.79-11.12,11.81-11.67c4.84,2.24,7.11,5.95,9.37,10.68
			c-2.09,21.65,10.6,32.18,25.98,43.37c25.26,18.36,49.81,37.57,77.03,53.12c70.18,40.08,143.26,73.96,218.73,102.71
			c26.79,10.2,53.62,20.46,82.03,25.71c9.05,1.67,18.06,1.42,27.13,1.45c6.78,0.02,11.41-4.17,17.07-8.27
			c4.48-1.3,7.36,0.37,10.56,3.34c2.62,5.34,1.27,9.21-2.98,13c-6.56,4.76-13.55,4.89-20.32,5.29c-18.46,1.11-36.66-1.66-55.85-4.25
			C931.6,1259.05,922.88,1261.79,914.24,1255.74z"/>
		<path class="st4" d="M1130.89,711.94c34.36-22.06,70.56-39.41,107.68-54.9c29.81-12.44,60.28-22.87,92.02-29.24
			c15.36-3.08,30.85-4.66,46.48-3.24c11.04,1,21.46,3.81,28.73,14.08c0.41,6.68-4.8,6.07-9,7.81c-15.32-3.15-27.48,2.75-40.18,8.73
			c-27.24,12.84-55.49,23.58-81.93,38.09c-32.83,18.01-67.4,32.29-101.3,47.98c-16.1,7.45-27.94,17.28-34.17,34.06
			c-5.28,14.2-16.71,21.33-31.82,24.1c-1.48-1.23-1.91-2.26-2.11-4.25C1114.35,767.3,1123.93,740.47,1130.89,711.94z"/>
		<path class="st1" d="M1394.42,644.85c3.91-1.82,7.31-2.99,11.1-4.83c7.18,7.32,5.68,16.32,3.02,25.11
			c-5.39,17.85-16.83,32.01-29.09,45.5c-33,36.31-72.02,65.31-112.8,92.08c-43.81,28.75-89.91,53.3-137.93,74.29
			c-33.69,14.73-68.14,27.04-104.26,34.2c-19.7,3.91-39.52,6.07-61.02,0.72c-2.14,0.01-2.62-0.16-3.79-0.66
			c-3.42-2.44-7.72-3.06-7.11-8.33c2.46-1.72,4.57-2.36,6.7-2.75c52.75-9.58,102.17-29.75,151.97-48.48
			c71.33-26.83,137.73-63.56,201.61-104.77c23.21-14.97,42.67-34.89,62.79-53.75C1389.3,680.37,1396.32,664.66,1394.42,644.85z"/>
		<path class="st4" d="M560.54,1024.03c-2.25-4.07-6.49-5.78-7.27-10.69c0.25-5.14,3.37-6.37,7.03-7.74
			c11.91-4.48,24.3-4.71,36.52-3.48c19.75,1.99,39.37,5.15,58.6,10.46c29.73,8.21,58.76,18.3,87.14,30.38
			c21.04,8.95,41.87,18.34,62.11,28.97c35.3,18.56,69.89,38.35,102.97,60.7c1.18,0.8,2.52,1.38,4.54,2.13
			c11.74,7.08,22.77,14.02,33.11,23.18c1.29,1.11,2.04,1.71,3.45,2.65c1.06,0.6,1.48,0.83,2.56,1.41
			c7.36,5.42,15.02,9.45,19.6,17.92c0.42,0.62,1.15,1.09,1.22,1.52c0.46,1.77,1.44,2.39,3.17,3.07c0.43,0.45,0.97,0.44,1.01,0.7
			c0.39,0.46,0.74,0.65,1.42,1.33c0.34,0.49,0.77,0.47,0.79,0.68c0.36,0.48,0.71,0.74,1.49,1.48c0.44,0.47,0.7,0.48,0.72,0.61
			c0.34,0.45,0.67,0.77,1.51,1.56c0.5,0.47,0.67,0.49,0.68,0.57c5.33,5.6,10.78,10.99,16.76,16.86c0.52,0.49,0.69,0.52,0.7,0.6
			c0.32,0.41,0.63,0.75,1.41,1.58c0.46,0.5,0.76,0.54,0.76,0.69c0.32,0.43,0.64,0.71,1.33,1.5c0.37,0.52,0.85,0.56,0.83,0.8
			c0.32,0.44,0.64,0.65,1.23,1.38c0.26,0.52,0.81,0.66,0.81,0.95c0.72,1,1.19,1.85,1.94,3.34c0.56,0.49,0.4,0.67,0.44,0.56
			c0.32,0.3,0.6,0.72,1.42,1.65c0.54,0.52,0.74,0.57,0.74,0.67c0.29,0.39,0.59,0.68,1.18,1.51c0.3,0.55,0.84,0.76,0.81,1.05
			c3.33,6.66,8.13,12.47,7.09,20.95c-2.96-0.75-5.37-2.13-8.39-3.84c-16.33-10.39-28.32-24.74-42.25-36.86
			c-42.9-37.33-88.73-70.29-138.88-97.18c-45.52-24.42-92.63-45.24-141.65-61.52c-37.7-12.52-76.1-21.78-116.35-19.84
			C568.9,1026.5,564.8,1026.83,560.54,1024.03z"/>
		<path class="st5" d="M464.25,1170.21c-0.48,4.39,0.04,7.85,1.06,11.44c10.74,37.81,28.51,72.18,52.22,103.25
			c21.78,28.55,45.97,55.15,72.49,79.42c26.03,23.81,54.39,44.44,86.53,60.32c-3.7,1.33-7.28,1.26-11.52,0.72
			c-43.38-6.97-79.46-26.7-110.3-56.36c-34.17-32.87-56.63-73.22-73.26-117.11c-9.53-25.15-16.82-50.96-21.87-78.35
			c-1.46-2.22-1.14-3.86-0.41-6.11C462.21,1166.07,464.01,1166.64,464.25,1170.21z"/>
		<path class="st6" d="M952.87,902.65c1.28,3.99,4.8,4.15,7.53,6.44c0.89,1.2,1.41,1.86,2.45,2.87c0.5,0.38,0.35,0.32,0.4,0.26
			c-2.54,2.87,0.51,4.53,1.75,6.27c28.71,40.19,37.41,85.34,33.59,133.7c-1,12.61-2.11,25.18-4.73,38.37
			c-1.56,10.23-4,19.49-5.68,28.89c-1.67,9.33-6.07,14.93-16.4,14.3c-3.86-0.23-7.77,1.54-12.38-0.66
			c-0.7-14.84,3.94-28.31,6.24-42.17c4.04-24.27,6.79-48.61,6.42-73.23c-0.22-14.8,1.09-29.68-2.25-44.33
			c-0.48-2.1-0.45-4.37-1.19-6.36c-6.97-18.61-13.99-37.2-21.16-55.74c-1.68-4.34-4.82-8.22-3.03-14.17
			c2.37-0.67,3.93,0.51,6.1,2.05C951.81,900.27,952.39,901.04,952.87,902.65z"/>
		<path class="st5" d="M575.95,830.49c0.62,0.89,0.94,2.53,1.27,4.82c-8.05,7.71-15.15,15.78-24.88,21.04
			c-16,8.65-24.77,24.1-33.01,39.25c-21.71,39.92-36.26,82.49-44.93,127.11c-1.99,10.23-5.03,20.26-7.13,30.51
			c-0.97,4.7-1.26,9.26-1.07,14.89c-0.26,1.27-0.6,1.6-1.65,2.02c-4.86-0.86-8.35-3.43-13-5.03c-1.04-0.56-1.43-0.82-2.25-1.66
			c-0.84-47.27,6.57-92.4,27.32-134.67c19.49-39.69,49.2-69.64,87.9-90.84C568.31,835.86,572.55,834.48,575.95,830.49z"/>
		<path class="st6" d="M913.46,1255.93c8.61,0.59,17.13,1.35,26.19,2.05c-4.74,1.32-5.9,5.92-7.96,9.6
			c-18.49,32.97-40.04,63.63-67.31,90.04c-1.55,1.5-3.22,2.89-5.48,4.35c-0.38-5.79,4.98-8.14,7.74-12.26
			c14.75-22.06,26.91-45.53,37.58-69.76C907.56,1272.35,911.78,1265.05,913.46,1255.93z"/>
		<path class="st2" d="M958.19,1132.5c6.97-0.16,13.09-2.93,19.72-2.21c4.28,0.46,6.19-2.38,7.46-6.3
			c3.34-10.29,4.83-20.95,7.48-32.09c0.06,12.8-3.74,25.6-7.13,38.41c-4.32,16.31-9.42,32.41-14.3,49.43
			c-6.98-4.7-13.86-10.23-21.13-16.41c-2.84-11.09,1.9-20.13,5.84-30.12C956.69,1132.52,957.69,1132.51,958.19,1132.5z"/>
		<path class="st7" d="M450.14,1063.87c5.35-0.78,8.96,2.1,13.35,4.78c2.36,2.97,3.24,5.73,2.75,8.7
			c-4.7,28.6-5.41,57.35-3.82,87.01c-3.29,2.31-3.68,0.32-4.54-2.46c-1.08-3.35-1.7-5.88-2.23-9.17c-0.14-1.63-0.31-2.5-0.35-4.04
			c-1.37-4.47-1.88-8.43-2.01-13.3c-0.06-1.72-0.18-2.6-0.22-4.15c-2.88-15.28-3.43-30.12-4.11-45.91
			C448.53,1077.74,447.81,1071.14,450.14,1063.87z"/>
		<path class="st1" d="M1130.17,711.36c3.13,1.57,3.29,4.01,2.68,6.57c-0.49,2.09-1.08,4.16-1.79,6.19
			c-8.05,22.95-14.22,46.54-23.84,69.79c-1.13,1.45-2.03,1.74-3.71,1.14c8.9-23.36,12.27-47.98,18.81-71.74
			c0.86-3.14,1.62-6.22,3.56-9.65C1127.18,712.56,1128.25,712.09,1130.17,711.36z"/>
		<path class="st2" d="M1019.84,1246.95c0.88-8.36-5.84-13.45-6.57-21.29c4.32,2.79,6.14,7.92,8.14,12.87
			c2.91,7.22,2.53,13.97-4.25,19.6C1018.01,1254.8,1021.14,1251.95,1019.84,1246.95z"/>
		<path class="st2" d="M1000.01,1208.12c-8.11-1.78-12.69-8.3-17.05-15.84C989.83,1195.48,994.5,1201.8,1000.01,1208.12z"/>
		<path class="st8" d="M450.24,1063.04c0.28,6.74,0.11,13.37-0.59,20.65c-2.11-5.93-1.27-12.61-1.07-20.04
			C448.86,1062.87,449.79,1062.93,450.24,1063.04z"/>
		<path class="st5" d="M677.58,1424.74c10.99,4.04,22.38,1.95,34.45,2.07c-10.62,2.04-22.13,0.58-34.56-0.02
			c-0.93-0.23-0.73-1.24-0.37-1.59C677.47,1424.85,677.55,1424.78,677.58,1424.74z"/>
		<path class="st5" d="M717.68,1426.6c3.86-3.03,9.1-0.99,14.91-1.92C728.65,1426.4,723.63,1426.76,717.68,1426.6z"/>
		<path class="st6" d="M676.6,1424.93c0.88-0.08,0.58,0.87,0.26,1.26c-4.19,1.46-7.91,0.23-12.08-0.8
			C668.16,1424.97,671.94,1424.99,676.6,1424.93z"/>
		<path class="st8" d="M457.27,1161.85c0.85,0.14,1.53,1.06,2.34,2.56c0.45,0.95,0.77,1.31,0.69,2.27
			c-0.51,1.92-0.61,3.25-0.68,5.21C457.62,1169.53,457.7,1165.99,457.27,1161.85z"/>
		<path class="st8" d="M452.84,1130.93c1.81,0.36,2.3,1.44,1.02,3.31C452.31,1133.67,452.6,1132.44,452.84,1130.93z"/>
		<path class="st8" d="M455.07,1148.38c1.82,0.31,2.29,1.4,1.11,3.27C454.56,1151.14,454.84,1149.9,455.07,1148.38z"/>
		<path class="st2" d="M975.5,1184.4c-1.11,0.42-2.32,0.03-3.18-1.87C973.22,1182.54,974.25,1183.18,975.5,1184.4z"/>
		<path class="st2" d="M1009.19,1219.06c-1.18,0.23-1.97-0.56-2.38-2.38C1007.54,1216.89,1008.35,1217.68,1009.19,1219.06z"/>
		<path class="st6" d="M852.7,1367.63c-0.03-0.69,0.39-1.32,1.21-1.95C854.8,1366.85,853.91,1367.23,852.7,1367.63z"/>
		<path class="st2" d="M977.97,1186.61c-0.44,0.29-0.88,0-1.43-0.78C977.01,1185.38,977.52,1185.61,977.97,1186.61z"/>
		<path class="st6" d="M856.64,1364.05c0.02-0.23,0.03-0.18-0.01-0.19C856.59,1363.85,856.62,1364.28,856.64,1364.05z"/>
		<path class="st1" d="M578.81,321.39c0.15,0.49-0.31,1.11-1.32,1.93C577.36,322.87,577.78,322.19,578.81,321.39z"/>
		<path class="st1" d="M576.53,323.44c0.17,0.53-0.29,1.18-1.33,2.02C575.04,324.94,575.47,324.25,576.53,323.44z"/>
		<path class="st2" d="M980.34,1188.72c-0.5,0.34-1.01,0.03-1.6-0.87C979.26,1187.37,979.82,1187.64,980.34,1188.72z"/>
		<path class="st2" d="M982.61,1190.86c-0.55,0.37-1.08,0.03-1.68-0.96C981.5,1189.4,982.09,1189.7,982.61,1190.86z"/>
		<path class="st2" d="M1002.15,1210.5c-0.56,0.33-1.07-0.04-1.6-1.05C1001.13,1209,1001.7,1209.33,1002.15,1210.5z"/>
		<path class="st2" d="M1004.16,1212.73c-0.52,0.28-0.97-0.07-1.47-0.99C1003.24,1211.32,1003.77,1211.62,1004.16,1212.73z"/>
		<path class="st2" d="M1012.73,1223.64c-0.53,0.23-0.94-0.16-1.34-1.08C1011.95,1222.19,1012.44,1222.53,1012.73,1223.64z"/>
		<path class="st2" d="M1011,1221.34c-0.65,0.36-1.19-0.06-1.7-1.22C1009.74,1220,1010.34,1220.39,1011,1221.34z"/>
		<path class="st2" d="M1006.14,1214.96c-0.45,0.23-0.85-0.1-1.3-0.89C1005.33,1213.68,1005.81,1213.95,1006.14,1214.96z"/>
		<path class="st9" d="M915.74,811.19c-17.22,6.17-34.29,8.47-51.69,10.01c-14.12,1.25-28.17,1.89-42.3,1.82
			c-23.2-0.12-46.2-2.3-69.59-7.63c-18.23-10.58-35.66-20.8-51.63-33.42c-50.32-39.76-76.9-93.03-86.59-155.05
			c-6.13-39.22-2.05-79.01-2.08-119.43c5.4-9.1,13.94-10.75,22.72-11.48c5.41-0.45,10.89-0.26,16.33-0.1
			c14.41,0.42,27.19-4.2,38.31-13.02c30.38-24.1,65.04-37.22,103.34-41.81c34.54-4.14,68.65-2.85,102.23,6.71
			c26.06,7.42,50.05,19,70.99,36.42c7.21,6,15.13,9.24,24.71,9.74c11.55,0.6,23.05,2,34.67,2.09c7.22,0.05,13.37,3.6,17.71,9.32
			c10.56,13.92,19.54,28.77,24.92,46.39c1.71,57.66-7.91,112.09-36.26,162.08c-12.85,22.66-30.36,41.72-52.13,56.1
			C958.54,783.7,938.27,798.42,915.74,811.19z"/>
		<path class="st10" d="M596.56,854.1c4.06-0.68,6.48,1.71,8.38,4.28c9.83,13.25,24.58,18.16,39.1,23.53
			c24.7,9.13,50.3,14.74,76.14,19.36c2.11,0.38,4.33,0.41,6.92-1.3c11.55,4.78,23.54,5.25,35.29,5.63
			c19.97,0.65,40.01,1.01,59.95-0.05c20.88-1.11,41.83-2.96,62.31-7.52c8.65-1.93,15.13-0.53,21.46,6.07
			c7.13,7.43,12.77,15.74,18.15,24.34c6.72,10.74,7.65,22.74,5.95,34.72c-1.58,11.12-9.72,18.53-18.25,24.82
			c-14.35,10.58-31.4,14.43-48.45,18.18c-13.16,2.9-26.69,1.32-39.9,3.94c-5.54,1.1-11.62,1.13-17.28-0.7
			c-3.2-1.04-6.44-0.96-9.7-1.01c-31.33-0.4-61.83-6.35-91.79-14.87c-23.72-6.75-47.1-14.71-68.85-26.71
			c-16.25-8.96-31.98-18.65-44.53-32.63c-7.31-8.13-13.43-16.89-16.49-27.72c-2.87-10.17-1.37-19.62,4.2-27.98
			C584.54,870.41,588.9,861.49,596.56,854.1z"/>
		<path class="st11" d="M460.47,1167.44c-0.66-0.54-0.73-0.92-0.77-1.87c0.59-1.46,1.84-2.62,1.61-3.19
			c-3.77-9.32-0.12-19.54-3.66-28.96c-1.06-2.83-0.26-6.48,0.11-9.7c1.97-17.53,4.07-35.05,6.15-53.53
			c0.42-0.96,0.81-0.97,1.78-1.06c29.91,10.43,55.36,27.6,79.99,46.19c7.83,5.91,14.29,13.05,20.92,20.28
			c30.19,32.87,65.09,58.53,110.06,67.62c3.22,0.65,6.37,1.3,9.64,1.29c18.14-0.07,36.27-0.15,55.4-0.34
			c7.18-0.06,12.79,1.9,18.5,4.26c16.85,6.94,33.93,13.34,51.73,20.03c1.57,0.92,1.85,1.89,1.19,3.62
			c-3.52,0.66-6.52,0.71-10.41,0.74c-6.17,0.16-11.45,0.01-17.52,0.11c-6.69,0.01-12.58,0.01-19.46,0.01
			c-4.15-0.09-7.33-0.04-11.18-0.1c-12.51,1.16-24.08-2.12-36.81-2.03c-1.93-0.05-2.9-0.08-4.59-0.12
			c-49.33-4.65-97.2-13.25-144.28-26.31c-32.44-9-64.07-20.4-95.88-31.31c-2.43-0.84-4.82-1.48-8.22-1.91
			C463.73,1169.18,462.8,1168.06,460.47,1167.44z"/>
		<path class="st7" d="M611.27,506.97c4.41,2.73,2.95,7.03,2.97,10.84c0.11,26.88,0.25,53.76-0.01,80.64
			c-0.17,18.24,2.55,36.12,7.55,53.45c7.23,25.04,16,49.56,30,71.9c5.4,8.62,11.25,16.97,17.9,24.46c21.34,24,46,44.04,74.56,59.06
			c2.78,1.46,6.41,2.01,7.24,6.75c-26.71-2.35-50.89-12.72-74.22-25.51c-13.4-7.34-25.43-16.68-37.11-26.38
			c-14.44-11.99-24.14-27.76-33.36-43.85c-13.63-23.78-23.54-48.9-26.74-76.24c-2.82-24.09-5.76-48.45-0.27-72.4
			C585.05,546.65,592.69,524.31,611.27,506.97z"/>
		<path class="st12" d="M915.91,811.73c0.25-5.01,4.95-6.19,8.4-8.52c19.43-13.14,39.36-25.58,58.4-39.26
			c21.37-15.35,37.63-35.34,50.32-58.51c14.79-27,23.07-56.06,27.78-86.08c2.94-18.79,6.18-37.74,4.93-56.99
			c-0.18-2.84-0.53-5.81,1.49-9.18c5,3.28,5.73,8.86,7,14.02c7.97,32.35,6.47,64.52-3.09,96.28c-7.42,24.66-16.63,48.45-32,69.65
			c-20.97,28.93-47.67,50.19-80.73,63.37C944.69,801.99,931.31,808.52,915.91,811.73z"/>
		<path class="st3" d="M1102.26,795.04c1.5-0.41,2.38-0.42,3.92-0.42c0.72,0.96,0.78,1.91,0.87,3.59c0.24,6.27-3.71,9.14-7.48,11.93
			c-30.99,22.88-62.94,44.15-98.51,59.46c-17.62,7.58-34.14,17.58-53.07,23.38c-2.33-2.52-2.11-5-1.91-8.19
			c1.32-1.98,2.33-3.78,3.84-4.41c29.51-12.28,55.53-30.63,82.8-46.86c17.93-10.67,36.41-20.65,56.28-29.14
			C1094.57,802.55,1098.89,800.12,1102.26,795.04z"/>
		<path class="st11" d="M955.67,1132.54c0.78,9.94-3.04,19.09-5.62,29.35c-0.15,0.8-0.94,0.88-1.31,1.01
			c-0.97-0.25-1.54-0.64-2.52-1.38c-8.19-6.17-15.98-12.02-23.78-17.85c-3.14-2.35-6.95-3.88-9.32-8.11
			C926.71,1131.74,940.72,1132.87,955.67,1132.54z"/>
		<path class="st13" d="M945.69,883.59c0.53,3.1,0.58,5.72,1.1,8.98c3.47,2.4,5.23,4.67,2.67,8.5c0.68-2.74-2.04-3.4-4.08-4.78
			c-3.5-3.11-6.39-6.17-9.82-9.8C938.81,884.37,941.27,881.95,945.69,883.59z"/>
		<path class="st5" d="M784.99,1233.54c4.53-4.47,10.11-2.76,16.22-1.33C796.68,1236.71,791.1,1234.98,784.99,1233.54z"/>
		<path class="st5" d="M754.37,1233.4c2.51-3.65,5.92-2.95,9.88-1.06C761.74,1236.01,758.33,1235.31,754.37,1233.4z"/>
		<path class="st5" d="M813.42,1232.78c-0.79-1.01-0.75-1.93-0.7-3.54c2.47-0.55,5.26-1.16,6.41,2.88
			C817.59,1232.87,815.92,1232.87,813.42,1232.78z"/>
		<path class="st3" d="M712.73,1231.16c0.66-2,1.84-2.58,3.74-0.84C715.8,1232.32,714.63,1232.89,712.73,1231.16z"/>
		<path class="st0" d="M559.87,1024.47c9.12-1,18.2-0.94,27.28-1.04c27.43-0.31,53.86,5.65,79.97,13.1
			c46.83,13.36,91.51,32.14,135.23,53.51c31.64,15.47,62.38,32.37,91.31,52.4c27.96,19.37,55.12,39.76,80.5,62.6
			c11.28,10.15,21.31,21.78,33.9,30.5c1.37,0.95,2.04,2.9,3.16,5.12c-4.72,9.16-12.05,11.96-21.66,12.08
			c-17.59,0.23-34.47-2.93-51.1-8.16c-45.62-14.34-89.84-32.23-133.64-51.37c-38.56-16.85-76.24-35.5-113.41-55.09
			c-27.8-14.66-55.08-30.52-80.12-49.73c-12.02-9.22-23.43-19.15-36.34-27.28C562.05,1053,557.35,1040.54,559.87,1024.47z"/>
		<path class="st0" d="M949.36,901.38c-2.54-2.09-1.84-4.58-2.22-7.48c16.05-10.78,33.63-17.63,50.56-25.68
			c15.02-7.14,30.37-13.62,44.34-22.67c19.66-12.74,40.1-24.35,58.44-39.08c2.33-1.87,3.88-4.25,6.02-7.12
			c28.6-14.63,22.06-8.53,35.14-35.13c4.59-9.34,10.7-15.56,20.07-20.07c27.44-13.2,55.31-25.46,82.89-38.35
			c15.39-7.2,30.3-15.58,45.45-23.4c26.44-13.64,54.75-23.21,80.99-37.25c7.36-3.94,14.68-2.31,23.01-0.96
			c7.42,20.46-1.69,36.25-15.33,49.7c-22.94,22.62-46.89,44.28-73.63,62.36c-14.37,9.71-30.16,17.28-45.04,26.27
			c-29.56,17.85-60.98,32.1-91.54,48c-20.98,10.92-43.19,18.71-65.02,27.51c-29.6,11.93-60.15,21-90.47,30.76
			c-6.54,2.11-13.05,4.47-19.26,7.39c-8.06,3.79-16.25,5.72-25.21,5.43c-4.6-0.15-9.25,1.23-14.74,1.85
			C952,902.76,951.09,902.14,949.36,901.38z"/>
		<path class="st13" d="M963.29,911.66c-1.17,1.16-2.09,0.81-2.6-1.2C961.61,910.06,962.42,910.52,963.29,911.66z"/>
		<path class="st2" d="M946.11,1161.64c0.46-0.37,1.1-0.06,1.94,0.93C947.7,1162.71,947.05,1162.4,946.11,1161.64z"/>
		<path class="st14" d="M888.97,650.49c-6.96-11.34-11.54-22.48-10.91-35.4c0.42-8.68,3.62-16.24,8.14-23.3
			c2.13-3.33,5.22-5.79,9.43-6.9c9.43-2.48,18.35-4.31,28.65-2.61c13.1,2.15,26.79,0.69,40.22,0.83c4.33,0.05,8.53,0.38,12.87,1.38
			c22.68,5.24,38.18,31.66,23.31,57.97c-1.25,2.2-3.26,4.21-3.76,6.56c-2.68,12.57-12.52,18.02-22.55,23.34
			c-9.39,4.98-19.83,8.65-29.98,8.24c-14.23-0.57-29.04-2.53-40.09-13.64C899.19,661.83,893.55,657.18,888.97,650.49z"/>
		<path class="st14" d="M676.24,667.42c-4.82-4.48-8.87-8.65-13.15-12.58c-5.51-5.05-7.63-11.47-7.28-18.58
			c0.67-13.71,5.5-26.09,13.48-37.19c7.11-9.89,17.71-13.19,28.77-11.29c15.58,2.68,31.1,1.61,46.63,1.71
			c8.69,0.05,16.58,2.14,23.78,6.51c9.87,5.99,15.08,14.59,16.11,26.62c1.87,21.9-9.97,36.02-24.91,49.16
			c-11.03,9.7-24.75,12.84-38.14,13.11c-13.94,0.28-27.72-4.44-39.38-13.23C680.42,670.35,678.65,669.11,676.24,667.42z"/>
		<path class="st14" d="M854.47,659.43c7.81,0.17,14.48-0.37,21.14,2.86c11.98,5.8,14.33,16.38,15.58,27.78
			c0.92,8.48-1.28,16.59-4.25,24.35c-6.27,16.4-14.15,31.67-29.95,41.36c-13.85,8.5-38.12,8.7-51.74,0.32
			c-27.6-17-37.85-42.39-36.07-73.67c0.35-6.13,3.96-10.56,8.64-14.31c9.99-8.02,21.64-10.56,33.74-8.31
			C825.7,662.45,839.52,662.19,854.47,659.43z"/>
		<path class="st15" d="M983.45,648.96c-16.43,18.32-36.4,24.06-58.48,16.64c-19.36-6.51-31.31-21.61-35.55-41.74
			c-3.05-14.48,9.3-29.56,24.09-29.72c10.42-0.11,20.96-1.47,31.3,1.75c3.4,1.06,7.07-0.15,10.66-1.04
			c10.03-2.48,19.51,0.12,27.9,5.48c14.39,9.2,12.13,29.22,6.24,40.1C988.07,643.26,985.89,645.75,983.45,648.96z"/>
		<path class="st8" d="M760.91,606.16c11.09,8.21,13.36,15.78,11.45,27.47c-3.59,21.86-26.07,38.59-49.06,40.61
			c-9.19,0.8-18.57-2.29-26.65-7.54c-14.86-9.67-25.49-22.18-26.94-40.76c-0.87-11.25,10.45-24.86,22.09-25.19
			c17.36-0.49,34.76-0.41,52.13,0.07C749.52,600.95,755.41,601.99,760.91,606.16z"/>
		<path class="st16" d="M864.21,678.73c2.07,0.58,3.32,1.05,5.11,1.94c1.15,1.41,1.54,2.5,1.69,4.53
			c-2.89,17.85-6.74,34.42-19.43,47.28c-13.05,13.24-27.28,13.74-41.28,1.34c-12.57-11.14-18.09-25.99-21.8-42.69
			c-0.34-3.29-0.14-5.67,0.99-8.8c0.82-1.25,1.25-1.68,2.49-2.5c2.57-0.88,4.35-0.91,6.99-0.49c19.22,7.76,37.7,12.03,57.32,1.4
			C859.02,679.32,861.13,678.7,864.21,678.73z"/>
		<path class="st15" d="M800.46,681.24c-2.7-0.26-4.52-0.81-7.25-1.64c-0.91-0.28-1.29,0.73-1.81,0.58
			c-0.7,2.49-0.88,5.12-1.16,8.73c-3,21.65,6.92,41.96,24.74,51.03c19.48,9.91,37.61,0.74,50.16-21c5.67-9.81,5.92-20.72,4.45-32.49
			c0.01-1.81-0.05-2.84,0.08-4.62c5.35-0.8,7.6,1.46,8.65,6.87c3.51,18.17-2.06,33.42-14.06,46.62
			c-6.78,7.46-13.77,14.63-24.66,16.68c-7.38,1.39-14.17,1.25-21.32-0.87c-18.6-5.52-39.9-33.01-38.61-54.3
			c0.82-13.52,8.64-25.79,25.42-26.36c15.96-0.54,31.96-0.4,47.92,0.06c4.58,0.13,10.57-0.17,12.02,7.45
			c-1.1,2.82-2.94,3.26-5.74,3.31C839.5,679.37,820.43,679.44,800.46,681.24z"/>
		<path class="st16" d="M970.98,606.63c2.57,0.15,4.26,0.22,6.79,0.14c2.05,0.19,3.18,0.69,4.68,1.82c0.51,0.36,0.46,0.54,0.56,0.54
			c4.57,8.69,1.04,16.4-3.44,23.54c-9.15,14.58-21.49,25.24-39.71,24.4c-16.15-0.75-34.03-17.41-38.62-34.37
			c-1.6-5.92-3.36-12.49,1.99-17.41c5.25-4.83,11.29-2.22,16.22,0.74C936.35,616.23,953.18,610.49,970.98,606.63z"/>
		<path class="st8" d="M971.71,605.93c-17.99,9.6-36.21,12.3-54.67,1.68c-1.25-0.72-2.57-1.37-3.93-1.88
			c-8.11-3.04-11.92-0.32-11.5,8.16c0.92,18.4,19.89,38.85,38.03,41.11c4.48,0.56,8.64-0.55,12.78-1.98
			c17.81-6.16,30.71-23.85,30.67-42.94c1.39-0.52,3.19-0.19,3.4,1.37c1.48,11.27,1.87,22.33-6.12,31.86
			c-10.29,12.26-22.49,19.15-39.34,18.58c-19.22-0.65-31.83-10.2-40.7-25.9c-4.9-8.66-2.91-18.39-1.71-27.61
			c0.68-5.22,5.3-7.68,10.47-7.72c17.74-0.14,35.48-0.11,53.22-0.03C966.01,600.62,969.47,601.59,971.71,605.93z"/>
		<path class="st8" d="M982.87,608.36c-1.1,0.16-2.28-0.28-3.87-1.23C980.66,604.54,981.91,605.45,982.87,608.36z"/>
		<path class="st16" d="M703.94,655.34c-12.57-9.06-20.9-19.97-23.31-34.89c-0.62-3.85-0.74-7.34,2.48-9.9
			c3.05-2.43,6.19-0.82,9.19,0.55c1.65,0.75,3.3,1.51,4.9,2.36c13.56,7.11,27.52,8.12,42.02,3.13c4.09-1.41,8.34-2.66,12.61-3.16
			c9.4-1.1,12.72,2.95,10.19,12.26c-2.12,7.81-6.01,14.76-11.59,20.66C738.86,658.6,723.05,666.4,703.94,655.34z"/>
		<path class="st8" d="M869.15,686.29c8.37,16.28,2.61,30.68-8.33,43.66c-4.57,5.42-9.34,11-16.37,13.87
			c-16.53,6.75-30.88,1.87-42.47-9.8c-10.3-10.37-16.75-23.35-15.43-38.88c0.16-1.85,0.34-3.58,2.82-4.98
			c4.52,11.03,7.13,22.79,14.35,32.69c3.88,5.31,8.05,10.27,13.79,13.66c10.74,6.33,20.58,5.24,29.94-3.02
			c9.37-8.25,14.23-19.06,17.59-30.69C866.55,697.59,867.46,692.22,869.15,686.29z"/>
		<path class="st8" d="M800.01,682.18c-0.13-3.59,1.39-5.27,4.46-5.26c16.26,0.02,32.52,0.02,48.78,0.14
			c1.85,0.01,3.32,1.28,4.9,3.52c-11.03,10.65-24.58,9.89-38.09,7.8C813.4,687.35,806.98,684.72,800.01,682.18z"/>
		<path class="st8" d="M791.31,680c-0.15-0.28,0.19-0.5,0.79-0.66C792.3,679.32,791.74,679.96,791.31,680z"/>
	</g>
</g>
</svg>
