<?xml version="1.0" encoding="utf-8"?>
<!-- Generator: Adobe Adobe Illustrator 24.2.0, SVG Export Plug-In . SVG Version: 6.00 Build 0)  -->
<svg version="1.1" id="Layer_1" xmlns="http://www.w3.org/2000/svg" xmlns:xlink="http://www.w3.org/1999/xlink" x="0px" y="0px"
	 width="1728px" height="1296px" viewBox="0 0 1728 1296" style="enable-background:new 0 0 1728 1296;" xml:space="preserve">
<style type="text/css">
	.st0{fill:#B81010;}
	.st1{fill:#B91010;}
	.st2{fill:#B81212;}
	.st3{fill:#B71515;}
	.st4{fill:#8789F2;}
	.st5{fill:#FEE471;}
	.st6{fill:#48AFF1;}
	.st7{fill:#F98046;}
	.st8{fill:#65585A;}
	.st9{fill:#1CAC93;}
	.st10{fill:#FE6385;}
	.st11{fill:#FA8147;}
	.st12{fill:#B51C1C;}
	.st13{fill:#B61818;}
	.st14{fill:#B52020;}
</style>
<g id="Layer_2_1_">
	<g>
		<g>
			<path class="st0" d="M1408.86,647.16c3.26,3.65,6.52,7.3,9.96,11.14c2.48-2.78,4.88-5.47,7.3-8.18
				c4.57,8.03,8.07,15.82,5.66,25.42c-1.04,4.13,0.2,8.99,1.06,13.4c1.26,6.49,2.89,12.93,4.85,19.24c0.49,1.59,3.1,3.9,4.29,3.66
				c7.04-1.4,8.59,4.43,11.62,8.2c3.95,4.91,7.06,10.67,11.64,14.85c6.54,5.97,11.47,4.95,18.65-1.3
				c6.57-5.72,13.71-10.78,20.22-16.57c2.93-2.6,5.24-6.07,7.24-9.49c1.96-3.35,2.99-7.24,4.83-10.67c0.58-1.09,2.39-1.82,3.76-2.13
				c6.45-1.43,12.98-2.47,19.38-4.09c1.23-0.31,2.84-2.69,2.75-4c-0.42-5.59,1.49-8.24,7.12-10.39c7.78-2.97,15.33-5.47,23.36-2.78
				c10.88,3.65,22.03,6.09,32.71,10.98c13.03,5.98,20.63,16.59,29.48,26.44c0.66,0.73,1.26,1.52,2.2,2.67
				c1.65-1.84,3.24-3.54,4.74-5.31c5.3-6.23,10.55-6.2,15.78,0.1c1.8,2.17,3.65,4.31,5.49,6.46c1.74,2.03,3.5,4.05,5.5,6.36
				c3.74-4.31,7.4-8.52,11.57-13.32c0.86,1.63,1.84,2.64,1.85,3.66c0.12,8.42,0.07,16.84,0.07,25.42
				c-3.76-1.97-7.16-4.18-10.88-5.62c-14.67-5.67-32.14-0.69-41.44,11.55c-10,13.16-10.7,30.65-0.73,43.53
				c9.22,11.92,19.36,23.12,29.34,34.93c7.85-9.19,15.5-18.14,23.91-27.98c0,9.16-0.01,17.13,0,25.11
				c0.01,8.2,0.06,16.39,0.01,24.59c-0.01,1.36,0.02,3.3-0.79,3.98c-5.18,4.33-3.77,9.88-3.28,15.31
				c0.78,8.67,1.97,17.33,2.15,26.01c0.33,15.96,0.08,31.94-0.05,47.91c-0.01,1.34-0.97,2.67-1.5,4c-1.5-0.59-3.38-0.79-4.44-1.82
				c-8.99-8.72-17.73-17.7-26.82-26.31c-1.47-1.4-4.44-2.23-6.47-1.87c-10.36,1.82-20.97,3.13-29.36,10.61
				c-1.01,0.91-2.87,1.3-4.31,1.23c-13.38-0.63-26.76-1.33-40.12-2.2c-5.35-0.35-5.94-2.23-3.93-7.1
				c5.2-12.62,15.27-20.6,26.12-27.77c1.48-0.98,4.33-0.11,6.5,0.22c2.22,0.34,4.37,1.07,6.56,1.63c0.14-2.13,0.67-4.32,0.33-6.37
				c-0.51-3.07-0.67-5.49,2.9-6.87c2.41-0.93,1.39-2.59,0.26-4.07c-4.46-5.8-9.29-11.37-13.22-17.51
				c-4.3-6.73-8.01-13.87-11.53-21.05c-3.35-6.85-5.97-14.06-9.21-20.96c-2.57-5.47-8.35-6.9-13.2-9.29
				c-8.06-3.97-16.43-7.34-24.45-11.39c-10.01-5.05-19.89-8.68-31.67-8.92c-11.31-0.23-22.81-2.21-34.07-5.58
				c-9.83-2.94-18.13-7.93-26.66-13.01c-5.53-3.29-11.44-5.97-16.87-9.42c-4.55-2.89-7.13-7-5.77-12.94c0.43-1.85-0.62-4.05-1-6.09
				c-1.64,1.31-3.28,2.6-4.9,3.93c-0.41,0.34-0.72,0.79-1.36,1.51c-5.86-10.11-14.38-16.24-25.84-19.06
				c3.83-4.4,7.93-8.49,12.19-12.4c0.56-0.51,2.14-0.41,2.98-0.02c3.43,1.62,6.71,3.54,10.12,5.18c2.39,1.15,5,2.66,7.43,0.25
				c4.07-4.03,7.07-8.34,6.14-14.77c-1-6.87-4.37-9.16-10.97-6.9c-6.69,2.29-13.55,4.07-20.34,6.05c-0.39,0.12-0.85,0.01-1.27,0.07
				c-3.9,0.5-7.78,1.29-11.69,1.44c-4.25,0.16-9.08,1.88-12.53-1.83c-4.97-5.34-9.84-10.84-14.12-16.74
				c-6.81-9.39-14.82-13.85-26.79-10.36c-8.41,2.45-12.99-0.33-17.02-8.08c-0.52-1-1.26-1.9-1.65-2.94
				c-0.7-1.89-1.22-3.85-1.82-5.78c2.43,0.18,4.98-0.02,7.24,0.71c1.05,0.34,1.65,2.43,2.24,3.82c1.63,3.84,4.67,4.78,7.58,1.88
				c3.07-3.06,5.61-6.65,8.62-9.78c2.01-2.09,4.37-5.24,6.7-5.36c7.6-0.36,12.81-4.87,18.21-9c6.75-5.16,14.44-4.84,22.16-4.84
				c0.9,0,1.91,0.59,2.68,1.16c2.93,2.19,5.66,4.65,8.68,6.7C1396.47,642.04,1401.06,647.86,1408.86,647.16z"/>
			<path class="st1" d="M804.84,515.67c-3.96,5.24-6.75,10.64-7.74,16.96c-0.2,1.26-1.81,2.73-3.12,3.33
				c-14.25,6.56-22.56,19.41-22.05,34.92c0.24,7.48,2.58,14.47,7.34,20.26c9.41,11.45,19.11,22.65,28.96,34.26
				c7.77-9.08,15.4-17.99,23.86-27.88c0,15.02,0.1,28.66-0.05,42.31c-0.06,5.4-4.74,8.18-7.87,11.6
				c-8.38,9.15-17.48,17.66-25.54,27.07c-3.18,3.72-4.66,9.05-6.36,13.84c-1.82,5.13-2.99,10.49-4.43,15.75
				c-2,7.3-3.89,14.64-5.99,21.91c-1.44,4.99-2.98,9.98-4.92,14.79c-0.48,1.19-2.57,2.07-4.08,2.47
				c-14.6,3.83-29.24,7.52-43.87,11.26c-3.5,0.89-6.15,0.04-7.51-3.55c-0.4-1.06-0.87-2.1-1.17-3.18c-2.46-9.04-9.54-11.6-17.71-13
				c-8.07-1.38-16.06-3.19-24.09-4.77c-4.64-0.92-8.66,0.57-13,2.34c-4.93,2.01-10.49,2.89-15.85,3.27
				c-5.02,0.36-10.13-0.66-15.21-0.89c-3.02-0.14-4.88-1.19-6-4.25c-2.7-7.35-5.25-9.22-13.14-8.81
				c-12.98,0.67-25.92,1.9-38.89,2.64c-1.57,0.09-3.81-0.97-4.73-2.23c-1.62-2.24-2.72-4.95-3.57-7.61
				c-3.62-11.32-7.05-22.71-10.57-34.06c-1.21-3.88-1.97-8.03-3.9-11.53c-1.7-3.07-4.53-5.64-7.26-7.97
				c-3.74-3.19-7.88-5.91-11.8-8.89c-0.76-0.58-1.63-1.35-1.91-2.2c-1.86-5.7-3.77-11.4-5.25-17.21c-1.06-4.17-0.13-8.16,2.98-11.39
				c1.91-1.99,1.89-3.96,0.25-6.05c-1.92-2.44-4.35-4.64-5.62-7.38c-2.16-4.66-3.64-9.63-5.29-14.52c-1.3-3.86-2.69-7.72-3.53-11.69
				c-0.49-2.33-0.39-4.96,0.15-7.28c0.6-2.54,1.99-4.9,3.07-7.33c2.73-6.15,5.23-12.42,8.33-18.37c1.23-2.36,3.69-4.22,5.91-5.87
				c0.62-0.46,2.97,0.23,3.53,1.06c1.47,2.17,3.16,4.63,3.38,7.1c0.59,6.64,4.95,9.77,10.11,12.5c1.83,0.97,3.57,2.09,5.69,3.34
				c-3.81,2.29-7.26,4.01-10.31,6.27c-16.65,12.34-19.35,36.16-5.99,51.99c9.18,10.88,18.42,21.73,27.98,33
				c10.23-12.21,20.61-23.94,30.11-36.34c3.07-4.01,4.44-9.64,5.55-14.75c2.19-10.09-0.99-19.13-6.99-27.3
				c-0.5-0.68-1.03-1.34-1.49-2.05c-0.13-0.2-0.04-0.53-0.07-1.16c1.63-0.11,3.26-0.29,4.89-0.31c7.92-0.05,15.85,0.11,23.75-0.21
				c1.73-0.07,4.25-1.43,4.93-2.88c3.56-7.64,9.59-12.86,16.61-16.74c3.24-1.79,7.55-2.06,11.41-2.21c2.97-0.11,4.99,1.68,5.67,5.17
				c0.32,1.62,2.58,3.59,4.33,4.06c5.97,1.6,12.14,2.49,18.17,3.88c4.87,1.13,6.25-3.6,9.44-5.28c1.44-0.76,2.52-2.19,3.77-3.32
				c2.02-1.83,3.87-1.62,6.49-0.63c4.17,1.58,8.72,2.2,13.15,2.98c0.87,0.15,2.28-0.57,2.87-1.33c4.02-5.24,8.29-10.36,11.6-16.03
				c1.3-2.23,0.53-5.79,0.36-8.73c-0.17-3.02,0.69-5.06,3.54-6.5c2.24-1.13,4.37-2.7,6.11-4.49c0.92-0.95,1.56-2.98,1.22-4.22
				c-2.55-9.42,0.58-15.18,10.03-17.84c5.94-1.68,6.91-3.32,6.38-9.44c-0.53-6.03-0.74-12.08-1.06-18.13
				c-0.03-0.55,0.08-1.15,0.29-1.66c2.62-6.09,5.03-13.02,11.5-15.44c5.3-1.99,11.55-1.47,17.4-1.86c0.65-0.04,1.44,1.22,2.08,1.95
				c2.04,2.31,4.05,4.66,6.25,7.2c1.51-1.67,2.94-3.19,4.31-4.76c4.22-4.85,9.6-6.52,15.63-4.05c5.73,2.34,11.24,5.22,16.73,8.11
				c1.06,0.56,1.7,2.16,2.22,3.41c0.86,2.08,1.39,4.3,2.2,6.41c2.02,5.3,1.39,6.4-4.43,6.73c-3.38,0.19-6.8-0.18-10.17,0.09
				c-3.81,0.3-3.69,1.44-2.75,4.87c1.24,4.51,1.32,9.35,1.63,14.06c0.04,0.58-1.52,1.29-2.36,1.9
				C814.56,508.6,809.79,512.01,804.84,515.67z M702.56,705.01c5.72,6.75,11.44,13.5,17.37,20.51c7.1-8.32,13.96-16.35,20.93-24.51
				c1.23,1.35,2.35,2.57,3.65,3.99c0.66-0.7,1.24-1.27,1.77-1.89c8.15-9.57,15.98-19.43,24.49-28.66
				c16.02-17.38,12.42-43.54-6.32-55.92c-1.23-0.81-2.41-2.56-2.56-3.98c-2.41-22.87-28.48-39.31-52.37-27.69
				c-1.14,0.55-3.2,0.22-4.39-0.47c-7.64-4.45-15.63-6.7-24.59-5.45c-13.95,1.95-23.76,9.48-29.04,22.22
				c-5.39,12.97-3.41,25.48,5.41,36.46c7.87,9.79,16.27,19.15,24.32,28.81c1.18,1.41,2.02,3.34,2.38,5.15
				c1.3,6.56,3.31,12.8,7.58,18.06C694.76,696.01,698.51,700.24,702.56,705.01z"/>
			<path class="st0" d="M170.6,533.51c-7.79,4.63-11.5,12.08-13.41,20.42c-2.77,12.06,0.68,22.58,8.41,32.16
				c4.55,5.63,7.78,12.32,12.3,17.97c8.46,10.57,17.43,20.73,26.52,31.46c2.18-2.43,4.29-4.77,6.54-7.28
				c0.89,0.94,1.73,1.82,2.63,2.76c0.35-0.18,0.81-0.28,1.05-0.57c9.07-10.62,18.33-21.09,27.12-31.94
				c9.27-11.45,10.94-24.26,5.7-38.28c6.13-0.64,11.11,0.84,14.66,5.78c2.02,2.81,3.97,5.7,6.24,8.3
				c4.02,4.59,7.96,9.29,14.47,10.71c2.93,0.64,5.7,2.04,8.54,3.1c-4.48,9.65-5.93,19.5-2.36,29.85c0.35,1.02-0.82,2.99-1.82,3.99
				c-7.56,7.58-11.43,16.66-11.18,27.33c0.19,8.1,2.92,15.41,8.08,21.71c3.4,4.15,7.17,8.02,10.36,12.32
				c2.2,2.96,4.16,6.26,5.42,9.71c2.91,7.93,8.63,13.79,13.86,20.02c6.72,8.01,13.54,15.92,20.68,24.29
				c6.45-7.52,12.82-14.96,19.34-22.57c1.2,1.28,2.24,2.39,3.63,3.87c3.66-4.28,7.37-8.45,10.88-12.79
				c1.47-1.82,2.86-2.79,5.35-2.18c6.43,1.58,13.03,2.54,19.3,4.56c2.53,0.81,4.49,3.63,6.54,5.71c3.85,3.91,7.47,8.05,11.37,11.92
				c3.75,3.72,3.81,5.81,0.28,9.52c-2.12,2.23-4.2,4.64-5.67,7.32c-1.72,3.12-1.91,6.52,0.93,9.39c2.11,2.15,2.37,3.9-0.02,6.39
				c-12.74,13.23-14.17,31.17-3.94,46.32c3.09,4.58,2.09,16.41-1.81,20.26c-2.49,2.45-4.89,1.1-7.27-0.4
				c-2.12-1.34-4.28-2.63-6.51-3.79c-0.67-0.35-1.96-0.57-2.36-0.2c-5.81,5.51-10.81,0.28-16.08-1.12
				c-0.67-0.18-1.24-0.68-1.88-0.96c-3.01-1.31-4.99-0.78-6.21,2.67c-0.66,1.88-2.13,4.2-3.77,4.76c-1.11,0.38-3.39-1.73-4.74-3.11
				c-5.99-6.17-11.64-12.7-17.85-18.63c-2.2-2.09-5.7-2.79-8.56-4.22c-3.37-1.67-6.98-3.04-9.97-5.24
				c-7.57-5.59-14.84-11.58-22.26-17.38c-5.41-4.23-11.05-8.19-16.2-12.71c-1.74-1.53-2.3-4.4-3.37-6.68
				c-0.11-0.23-0.05-0.57,0.01-0.84c1.96-8.56-2.29-13.63-9.23-17.86c-10.67-6.51-19.92-14.73-27.39-24.9
				c-3.16-4.31-7.18-7.99-10.26-12.34c-1.59-2.25-3.24-5.67-2.65-8c1.69-6.58-1.38-11.04-4.81-15.86
				c-2.67-3.74-5.65-7.67-6.84-11.98c-2.69-9.73-8.98-16.83-15.77-23.51c-6.85-6.74-12.66-13.82-15.18-23.34
				c-1.36-5.14-5.05-7.86-10.57-8.19c-9.01-0.53-10.67-2.45-11.76-11.5c-0.36-2.98-1.75-5.85-2.69-8.76
				c-2.06-6.42-3.94-12.9-6.25-19.23c-2.79-7.64-5.83-15.19-9.06-22.66c-0.64-1.49-2.44-2.67-3.95-3.57
				c-4.95-2.93-9.96-5.79-15.09-8.41c-1.81-0.93-4.14-1.82-6.01-1.48c-3.72,0.66-4.88-1.29-5.63-4.12c-0.32-1.22-0.37-2.5-0.57-3.75
				c-0.86-5.45-2.57-10.34-7.74-13.4c-3.25-1.93-5.62-4.64-6.07-8.72c-0.12-1.1-0.96-2.65-1.89-3.06
				c-8.22-3.63-12.21-11.36-17.74-17.63c-1.82-2.06-4.35-4.28-6.87-4.76c-4.22-0.81-7.64-2.64-9.96-5.83
				c-7.3-10.03-17.69-16.48-27.18-23.94c-4.71-3.7-7.59-8.12-9.25-13.7c-2.13-7.12-4.45-14.18-6.8-21.23
				c-1.32-3.96-0.94-4.61,3.13-4.11c6.03,0.74,12.11,1.29,18.05,2.49c2.28,0.46,4.73,2.07,6.26,3.87
				c5.3,6.23,12.14,9.84,19.66,12.43c0.76,0.26,1.96-0.05,2.69-0.51c5.71-3.56,11.62-4.2,17.64-1.07c1.26,0.65,2.61,2.18,2.88,3.51
				c1.44,6.99,3.95,13.36,8.37,19.09c1.18,1.52,0.76,4.26,1.12,6.43c1.25,7.67,4.09,14.62,9.58,20.24c2.79,2.85,3.65,6.33,4.7,10
				c1.33,4.65,2.61,9.76,5.49,13.45c9.51,12.21,19.73,23.87,29.92,36.04c10.34-12.16,20.38-23.97,30.93-36.39
				c8.74,8.3,17.43,16.57,26.13,24.84c-11.98-1.65-22.73-0.23-32.24,7.49C170.68,533.58,170.6,533.51,170.6,533.51z"/>
			<path class="st2" d="M505.06,859.39c2.01,4.26,6.08,4.91,9.48,5.19c5.24,0.43,7.98,3.6,10.81,7.14c0.51,0.64,1.07,1.25,2.13,2.49
				c3.63-8.89,11.05-8.51,18.49-8.39c4.94,0.08,9.98-0.89,14.82-0.25c7.33,0.97,12.04-2.33,15.67-7.49
				c11.16,13.36,22.3,26.7,33.82,40.49c6.73-7.85,13.28-15.51,20.1-23.46c9.78,11.48,19.41,22.8,29.21,34.31
				c1.57-1.73,3.29-3.1,4.31-4.87c3.69-6.38,9.26-8.13,16.29-7.86c10.14,0.39,20.3,0.29,30.46,0.18c4.35-0.05,5.85,2.23,5.81,6.02
				c-0.06,6.06-0.37,12.11-0.41,18.16c-0.01,2.06,0.18,4.23,0.86,6.15c1.1,3.09-0.53,4.32-2.91,4.01
				c-4.41-0.59-8.82-1.56-13.07-2.89c-5.33-1.66-10.5-3.83-15.73-5.78c-1.32-0.49-2.79-0.77-3.93-1.54
				c-5.94-4.02-12.11-3.26-18.23-0.84c-7.13,2.81-13.88,3.53-21.24,0.01c-5.51-2.64-11.78-3.72-17.75-5.34
				c-0.96-0.26-2.58-0.1-3.16,0.54c-3.43,3.76-7.45,2.56-11.46,1.67c-11.57-2.57-23.19-5-34.69-7.87c-4.45-1.11-8.84-2.88-12.9-5.03
				c-9.12-4.83-18.76-7.39-29.01-7.91c-1.83-0.09-3.84,0.22-5.47-0.4c-6.78-2.61-13.44-2.31-20.1,0.19
				c-2.18,0.82-4.46,1.56-6.41,2.79c-4.47,2.82-9.01,2.13-13.4,0.35c-7.9-3.22-15.61-6.87-23.5-10.13
				c-1.89-0.78-4.13-0.92-6.22-0.98c-6.08-0.18-12.17-0.45-18.24-0.16c-5.63,0.27-10.19-2.01-14.31-5.24
				c-1.09-0.85-1.67-3.47-1.25-4.92c1.22-4.16,0.55-6.76-3.97-8.07c-2.53-0.73-4.83-2.25-7.3-3.25c-4.32-1.75-8.62-1.47-13.25-0.73
				c-4.18,0.67-8.71-0.19-12.97-0.99c-1.65-0.31-3.24-2.14-4.34-3.66c-0.7-0.97-1.01-2.96-0.46-3.88c0.47-0.78,2.4-0.88,3.7-0.94
				c2.9-0.15,6.64,1.03,8.54-0.36c4.22-3.08,7.86-7.16,11.06-11.34c2.17-2.83,2.99-6.65,4.82-9.79c0.83-1.43,2.48-2.91,4.02-3.3
				c5.54-1.42,10.67-0.64,14.54,4.17c1.13,1.4,2.32,2.74,3.62,4.27c1.68-1.78,3.19-3.38,4.78-5.07c1.59,1.8,3.02,3.34,4.37,4.95
				c1.35,1.6,2.63,3.26,4.27,5.29c2.52-2.89,4.76-5.67,7.24-8.24c3.2-3.32,10.1-3.11,13.15,0.22c2.7,2.95,5.8,4.78,10.04,3.97
				c0.88-0.17,1.89,0.31,2.84,0.52c3.9,0.89,7.76,2.1,11.72,2.63c5.76,0.78,7.7,5.74,10.89,9.29
				C502.77,855.05,503.71,857.2,505.06,859.39z"/>
			<path class="st2" d="M987.6,703.05c6.39,3.83,7.07,10.75,9.76,16.48c0.94,2,1.9,4.01,2.7,6.07c0.65,1.65,1.52,3.4,1.51,5.1
				c-0.04,4.65-0.54,9.29-0.76,13.94c-0.13,2.73,0.08,5.22,3.04,6.83c8.04,4.38,13.34,11.59,18.4,18.88
				c0.56,0.81-0.59,3.97-1.71,4.55c-2.83,1.45-6.09,2.08-9.2,2.97c-5.11,1.46-10.25,2.81-15.33,4.33c-2.47,0.74-3.39,2.41-3.26,5.16
				c0.31,6.62-1.53,7.91-7.29,5.01c-3.49-1.75-6.78-3.99-9.89-6.38c-2.62-2.01-3.04-4.97-1.98-8.07c0.54-1.6,1.3-3.14,1.72-4.78
				c1.87-7.29,0.74-8.89-5.61-13.08c-5.14-3.39-9.86-7.54-14.3-11.83c-3.91-3.78-4.03-8.57-0.33-13.81
				c3.24-4.59,3.3-9.38,2.86-14.53c-0.29-3.4-0.57-6.91-0.02-10.24c1.03-6.29,0.38-12.29-1.56-18.28c-0.35-1.08-0.45-2.51-0.04-3.53
				c1.67-4.14,3.59-8.18,5.59-12.64c3.24,4.1,6.44,8.36,9.87,12.43c4.27,5.05,8.7,9.97,13.16,14.85
				C985.4,702.95,986.59,702.76,987.6,703.05z"/>
			<path class="st3" d="M1026.53,592.11c1.02,0.39,2.2,0.96,2.64,0.61c1.3-1.06,2.58-2.32,3.37-3.77c3.09-5.73,8.01-6.87,13.9-5.94
				c1.67,0.26,3.39,0.25,5.06,0.54c6.62,1.15,12.67,0.5,17.33-5.76c2.14,2.39,3.98,4.45,6.05,6.77
				c8.86-10.22,17.68-20.41,26.43-30.51c7.69,4.35,8.5,9.6,3.47,15.67c-8.15,9.82-15.91,19.97-24,29.85
				c-1.22,1.49-3.2,2.96-5.02,3.25c-9.19,1.51-18.44,2.67-27.68,3.87c-4.82,0.62-9.28,0.45-13.67-2.75
				c-2.63-1.92-6.66-2.67-10.07-2.67c-11.86-0.01-23.73,0.52-35.59,0.89c-3.53,0.11-6.78,0.24-10.05-2.11
				c-1.57-1.13-4.8-0.25-7.21,0.16c-2.03,0.35-3.94,1.35-6.25,2.19c-3.18-10.63-9.32-18.43-18.7-23.82
				c-3.52-2.02-1.89-8.9,2.44-10.23c2.31-0.71,5.04-0.58,7.49-0.22c7.27,1.09,14.34,2.64,20.63,7.04c2.65,1.85,6.28,2.54,9.57,3.18
				c5.26,1.02,10.63,2.24,15.94,2.15c6.55-0.12,12.07,2.65,17.68,5.01C1022.77,586.54,1024.36,589.68,1026.53,592.11z"/>
			<path class="st4" d="M638.54,825.34c5.62-2.04,11.08-4.88,16.88-5.98c16.32-3.08,33.6,8.68,37.41,25.06
				c2.67,11.49,0.65,22.03-7.25,31.19c-8.56,9.93-17.01,19.97-25.52,29.95c-0.07,0.09-0.26,0.07-0.89,0.22
				c-3.68-4.27-7.53-8.71-11.35-13.18c-4.95-5.79-9.99-11.51-14.76-17.44c-11.83-14.72-10.57-33.77,2.95-46.95
				c0.81-0.79,1.62-1.58,2.5-2.63C638.55,825.32,638.54,825.34,638.54,825.34z M668.62,863.53c0.5-0.49,1.01-0.98,1.51-1.48
				c5.06-5.12,5.64-13.6,1.28-18.75c-5.33-6.3-13.16-7.95-19.14-4.05c-6.69,4.36-9.02,12.81-5.38,19.5
				C651.06,866.43,659.24,868.44,668.62,863.53z"/>
			<path class="st5" d="M237.82,548.71c0.98,1.75,1.76,3.66,2.98,5.22c10.08,12.8,9.76,30.76-0.82,43.19
				c-8.65,10.16-17.25,20.37-26.19,30.93c-4.19-4.83-8.18-9.33-12.05-13.93c-5.35-6.35-10.94-12.54-15.85-19.22
				c-7.37-10.03-8.81-21.24-3.97-32.71c5.07-12,14.18-19.21,27.4-21.04c9.62-1.33,18.04,1.11,25.65,6.95
				c0.63,0.48,1.52,0.63,2.54,0.82C237.76,548.79,237.82,548.71,237.82,548.71z M199.79,578.19c4.19,8.4,10.54,11.75,18.22,9.62
				c7.62-2.11,12.48-10.97,10.06-18.33c-2.58-7.84-10.82-12.16-18.47-9.66C202.14,562.26,199.38,567.13,199.79,578.19z"/>
			<path class="st5" d="M463.38,769.73c5.21,13.52,3.52,25.67-5.72,36.59c-8.45,9.99-16.89,19.98-25.67,30.37
				c-3.73-4.37-7.19-8.39-10.61-12.46c-5.72-6.79-11.72-13.38-17.05-20.47c-7.49-9.97-9.02-21.19-4.26-32.72
				c5.06-12.25,14.32-19.39,27.71-21.31C443.03,747.55,457.72,756.78,463.38,769.73z M438.32,795.63c0.5-0.26,1.04-0.47,1.5-0.78
				c6.91-4.65,9.09-13.43,4.96-19.93c-4.56-7.17-13.44-9.42-20.19-5.11c-6.77,4.32-9.07,13.28-5.11,19.92
				C423.17,795.93,429.72,798.13,438.32,795.63z"/>
			<path class="st6" d="M113.18,491.62c-6.58-20.76,7-39.54,24.17-44.04c20.57-5.39,42.45,10.82,42.74,31.98
				c0.13,10.01-3.35,18.3-9.81,25.7c-8.14,9.33-16.11,18.8-24.48,28.58c-5.73-6.69-11.3-13.14-16.82-19.65
				c-3.82-4.51-7.75-8.95-11.25-13.7C115.85,497.94,114.77,494.8,113.18,491.62z M145.68,494.56c10.35-1.87,14.84-6.57,14.8-15.5
				c-0.02-6.29-4.76-12.11-11.32-13.9c-5.39-1.47-12.33,1.51-15.54,6.67c-3.36,5.41-3.11,12.97,1.37,17
				C137.79,491.34,141.63,492.68,145.68,494.56z"/>
			<path class="st7" d="M827.97,912.71c-4.94,5.8-9.71,11.34-14.76,17.2c-5.96-6.96-11.72-13.68-17.46-20.41
				c-2.57-3-5.03-6.1-7.67-9.04c-17.89-19.9-8.61-50.86,17.43-56.98c21.85-5.14,41.97,11.75,41.99,32.85
				c0.01,8.84-2.62,16.52-8.45,23.18C835.33,903.76,831.77,908.14,827.97,912.71z M825.01,866.93c-2.33-1.72-4.46-3.9-7.04-5.06
				c-5.48-2.44-10.52-0.55-14.66,3.2c-4.33,3.91-5.19,9.28-4.05,14.72c1.23,5.83,9.54,11.6,15.01,10.75
				C826.99,888.58,831.55,876.11,825.01,866.93z"/>
			<path class="st8" d="M506.73,846.72c-5.17-6.31-10.55-12-12.75-20c-6.34-23.11,12.31-45.52,36.15-43.13
				c13.94,1.39,23.72,8.7,28.8,21.54c5.02,12.69,2.74,24.58-6.11,35.08c-8.46,10.03-16.97,20.03-25.74,30.38
				C520.22,862.52,513.58,854.73,506.73,846.72z M526.23,801.57c-1.35,0.3-2.74,0.47-4.03,0.91c-6.72,2.31-10.93,10.42-9.26,17.69
				c1.31,5.69,8.98,11.61,14.75,11.02c8.26-0.84,14.72-7.42,14.16-15.65C541.34,808.05,535.21,801.91,526.23,801.57z"/>
			<path class="st9" d="M960.23,925.87c-4.5,6.48-8.63,12.85-13.32,18.77c-6.03,7.62-12.51,14.9-19.07,22.64
				c-7.5-8.88-14.67-17.53-22.02-26.03c-4.63-5.35-9.03-10.68-11-17.75c-6.24-22.48,11.01-43.99,34.29-43.45
				C949.07,880.51,968.33,900.8,960.23,925.87z M942.47,909.44c-1.63-4.56-4.53-8.16-8.95-10.09c-5.71-2.5-11.08-1.03-15.53,2.95
				c-4.36,3.9-5.38,9.32-4.09,14.71c1.49,6.22,9.52,12.6,17.26,10.19C939.66,924.56,942.57,920.51,942.47,909.44z"/>
			<path class="st9" d="M774.02,572.87c-1.93-20.86,14.22-38.58,34.84-37.89c14.33,0.48,24.78,7.38,30.52,20.2
				c5.82,13,3.8,25.48-5.54,36.52c-8.46,10-16.93,19.99-25.67,30.32c-5.67-6.59-11.16-12.92-16.57-19.31
				c-3.64-4.3-7.16-8.69-10.76-13.02C776.88,584.9,774.9,579.31,774.02,572.87z M818.59,557.75c-5.19-6.18-14.06-6.41-20.46-0.54
				c-5.57,5.11-5.85,14.99-0.61,20.43c5.91,6.13,14.37,6.16,20.29,1.36C824.13,573.89,824.63,562.92,818.59,557.75z"/>
			<path class="st9" d="M564.32,654.34c-8.01-9.49-16.09-18.54-23.55-28.08c-9.1-11.64-9.97-24.52-2.85-37.32
				c6.9-12.4,18.01-18.26,32.27-17.36c13.95,0.88,23.85,8.16,29.19,20.81c5.43,12.87,3.27,25.01-5.82,35.76
				c-8.46,10.01-16.93,20.01-25.68,30.34C566.62,657.02,565.57,655.8,564.32,654.34z M580.04,612.77c0.82-3.02,2.14-6.01,2.36-9.08
				c0.38-5.25-3.9-11.13-8.81-13.09c-5.45-2.18-12.35-0.74-16.2,3.37c-3.61,3.85-4.96,11.52-2.88,16.04
				C558.58,618.88,571.06,623.46,580.04,612.77z"/>
			<path class="st9" d="M830.46,415.43c-0.99,8.3-4.45,14.97-9.71,20.95c-8.26,9.41-16.25,19.06-24.56,28.84
				c-9.68-11.51-19.75-22.24-28.32-34.05c-8.13-11.2-8.33-23.87-1.3-35.98c6.96-11.99,17.74-17.4,31.63-17.08
				C814.67,378.48,832.14,393.66,830.46,415.43z M810.89,407.37c-1.73-4.65-4.71-8.31-9.28-10.23c-8.74-3.67-20.89,3.08-19.63,15.89
				c0.72,7.28,9.77,14.25,16.85,12.34C808.03,422.89,810.94,418.73,810.89,407.37z"/>
			<path class="st9" d="M1408.15,774.63c-9.58,11.46-18.96,22.68-28.51,34.12c-9.68-11.5-19.62-22.15-28.19-33.81
				c-8.21-11.18-8.6-23.85-1.69-36.03c6.84-12.03,17.61-17.77,31.5-17.33C1406.48,722.39,1423.2,750.93,1408.15,774.63z
				 M1393.62,749.6c-2.79-2.98-5.1-6.84-8.49-8.74c-5.37-3.01-10.97-1.1-15.39,2.78c-4.38,3.84-5.35,9.3-4.14,14.67
				c1.38,6.13,9.31,12.64,17.13,10.34C1391.83,765.99,1394.95,761.14,1393.62,749.6z"/>
			<path class="st10" d="M883.26,759.61c-2.61-16.2,2.71-28.75,16.57-36.92c11-6.49,22.7-6.45,33.83-0.14
				c11.1,6.3,16.98,16.12,17.39,29.03c0.28,9.04-2.85,16.76-8.69,23.56c-8.45,9.84-16.79,19.78-25.48,30.04
				c-5.59-6.51-10.98-12.75-16.32-19.03c-3.38-3.98-7.08-7.76-9.92-12.1C887.75,769.65,885.75,764.68,883.26,759.61z M909.09,738.74
				c-4.83,3.1-6.72,7.55-6.5,13.21c0.22,5.47,3.54,10.36,8.96,12.55c5.99,2.43,11.36,1.26,16.02-3.49
				c4.04-4.12,5.37-10.15,3.15-15.12C927.38,738.41,919.15,733.13,909.09,738.74z"/>
			<path class="st10" d="M1107.44,538.68c-2.22,7.81-7.61,13.11-12.45,18.79c-6.67,7.83-13.3,15.7-20.19,23.83
				c-5.63-6.57-11.02-12.84-16.39-19.13c-2.75-3.22-5.42-6.5-8.22-9.68c-15.5-17.61-12.27-42.09,7.43-53.63
				c11.03-6.46,22.7-6.55,33.84-0.28c11.12,6.25,17.2,16.05,17.43,28.97C1108.96,531.14,1108.02,534.75,1107.44,538.68z
				 M1064.02,517.13c-3.55,4.21-4.3,9.21-3.17,14.28c1.29,5.77,9.26,11.18,14.72,10.62c6.75-0.68,13.16-6.31,13.86-12.17
				c0.92-7.68-3.09-14.31-9.84-16.67C1073.74,511.15,1068.95,513.14,1064.02,517.13z"/>
			<path class="st7" d="M1689.92,752.37c4.91,13.38,2.54,25.11-6.43,35.64c-8.39,9.87-16.76,19.76-25.38,29.92
				c-7.77-9.19-15.17-18.19-22.86-26.94c-5.48-6.24-9.78-12.81-11.05-21.31c-2.14-14.31,5.92-29.71,19.21-35.65
				C1661.76,725.83,1681.84,733.62,1689.92,752.37z M1669.03,773.59c6.1-6.85,5.41-14.64-1.89-21.34
				c-5.27-4.84-14.59-4.29-19.61,1.36c-4.93,5.53-5.23,14.96,0.48,20.51C1653.46,779.41,1662.84,780.34,1669.03,773.59z"/>
			<path class="st7" d="M1452.88,600.71c0.38,9.9-3.06,17.89-9.26,25c-8.34,9.57-16.43,19.35-24.9,29.35
				c-5.6-6.52-10.99-12.76-16.33-19.05c-3.74-4.41-7.64-8.71-11.06-13.36c-7.9-10.72-9.43-22.45-3.82-34.58
				c5.57-12.06,15.22-18.75,28.64-19.89C1436.72,566.45,1452.21,582.96,1452.88,600.71z M1405.13,596.09
				c-0.22,1.92-0.6,3.84-0.62,5.76c-0.06,5.33,3.43,10.34,8.47,12.43c6.3,2.6,11.66,1.51,16.43-3.33
				c4.06-4.12,5.43-10.15,3.15-15.11c-2.55-5.57-6.67-9.46-13.1-9.59C1412.83,586.1,1407.96,589.18,1405.13,596.09z"/>
			<path class="st7" d="M1637.14,623.3c14.89,0.24,25.25,7.33,31.01,20.16c5.94,13.24,3.59,25.78-5.92,36.91
				c-7.24,8.47-14.38,17.04-21.58,25.55c-1.18,1.39-2.48,2.67-3.93,4.22c-9.57-11.4-19.62-22.17-28.23-33.98
				c-7.77-10.66-8.23-22.88-1.91-34.68C1612.94,629.61,1623.06,623.37,1637.14,623.3z M1644.53,668.87
				c4.36-3.42,7.53-7.33,7.12-13.43c-0.36-5.29-4.07-11.15-8.98-13.1c-5.53-2.19-12.08-0.83-16.23,3.38
				c-3.6,3.64-4.98,11.45-2.84,16.04C1627.27,669.69,1634.74,672.4,1644.53,668.87z"/>
			<path class="st4" d="M307.65,659.42c15.46-18.31,44.05-16.24,56.08,4.13c7.14,12.09,7.23,24.9-0.98,36.25
				c-8.57,11.84-18.62,22.61-28.32,34.21c-5.69-6.63-11.07-12.87-16.42-19.14c-3.29-3.86-6.7-7.64-9.76-11.68
				C297.23,688.64,297.04,674.49,307.65,659.42z M342.97,691.83c3.93-3.33,6.45-7.2,6.1-12.72c-0.34-5.36-4.06-11.07-9.14-13.05
				c-6.03-2.35-11.33-0.73-15.91,3.33c-3.69,3.27-5.09,11.13-3.17,15.64C324.55,693.8,333.04,696.62,342.97,691.83z"/>
			<path class="st4" d="M730.24,836.37c5.75-2.07,11.36-4.84,17.29-6.06c14.82-3.05,32.68,8.58,36.29,23.15
				c0.27,1.11-0.21,2.66-0.84,3.7c-4.89,8.12-7.28,16.68-5.37,26.22c0.26,1.29-0.66,2.85-1.18,4.23c-0.24,0.63-0.78,1.17-1.24,1.7
				c-7.87,9.19-15.74,18.38-23.93,27.94c-4.07-4.71-7.93-9.14-11.74-13.61c-4.95-5.79-9.99-11.5-14.76-17.44
				c-11.82-14.72-10.56-33.74,2.95-46.95c0.81-0.79,1.61-1.58,2.49-2.64C730.26,836.34,730.24,836.37,730.24,836.37z M737.05,864.53
				c0.58,6.79,6.2,12.29,13.56,13.28c4.96,0.67,12.58-4.05,14.36-9.21c2.15-6.23,1.17-11.77-3.95-16.45
				c-4.57-4.18-9.61-4.9-15.18-2.79C740.35,851.45,737.06,857,737.05,864.53z"/>
			<path class="st11" d="M490.92,702.45c-3.03,3.52-5.88,6.81-9.18,10.61c-10.15-12.6-20.05-24.87-29.92-37.15
				c-1.82-2.27-1.48-4.2,0.22-6.72c5.88-8.69,7.8-18.32,5.15-28.57c-0.71-2.73-0.21-4.53,1.88-6.27c11.21-9.29,23.69-11.62,37-5.69
				c12.83,5.72,19.58,16.08,20.2,30.2c0.39,9-2.59,16.82-8.49,23.64C502.15,689.01,496.66,695.64,490.92,702.45z M484.1,643.85
				c-0.71,0-1.41-0.03-2.12-0.01c-7.01,0.22-13.52,6.17-14.14,12.46c-1.02,10.29,5.41,15.73,13.09,17
				c5.29,0.88,13.24-2.88,15.36-10.53C498.16,655.97,495.91,647.46,484.1,643.85z"/>
			<path class="st10" d="M966.56,618.64c22.12-13.33,48.33-1.86,52.94,23.19c1.76,9.53-0.56,18.61-6.76,26.2
				c-8.73,10.69-17.83,21.08-27.13,32.01c-5.71-6.7-10.85-13.56-16.86-19.54c-5.28-5.25-6.56-11.37-7.85-18.28
				c-1.08-5.83-4.55-11.32-7.52-16.65c-1.45-2.6-1.98-4.25,0.18-6.63c4.95-5.44,9.41-11.24,11.33-18.57
				C965.06,619.76,965.82,619.33,966.56,618.64z M976.06,656.62c5.06,4.55,10.72,5.13,16.72,2.24c5.43-2.62,8.62-8.91,7.4-15.69
				c-1.07-5.94-5.02-9.82-10.9-11.56c-5.56-1.65-12.22,0.88-15.38,5.83C969.69,644.02,970.25,650.24,976.06,656.62z"/>
			<path class="st11" d="M407.77,685.22c-4.32-5.05-8.42-9.9-12.59-14.68c-1.65-1.9-1.86-3.55-0.73-6
				c4.88-10.56,4.73-21.16-0.23-31.78c-0.63-1.35-0.27-3.89,0.64-5.13c10.62-14.43,33.47-17.31,47.56-6.18
				c16.19,12.79,18.34,34.23,5,50.06c-8.44,10.01-16.91,19.99-25.65,30.31C417.01,696.16,412.49,690.8,407.77,685.22z
				 M410.39,638.67c-3.84,5.32-4.1,11.03-0.87,16.52c2.8,4.76,7.54,7.58,13.05,7.12c6.38-0.53,11.32-3.88,13.37-10.45
				c2-6.39-0.68-13.36-6.65-17.14C423.65,631.15,416.3,632.5,410.39,638.67z"/>
			<path class="st9" d="M308.11,574.87c19.1-8.37,36.83-0.28,44.98,13.76c3.8,6.55,5.03,13.69,4.23,21.12
				c-0.14,1.31-1.75,3.17-3.03,3.53c-15.51,4.39-25.45,13.86-28.55,30.03c-0.27,1.4-1.86,2.85-3.21,3.68
				c-1.88,1.16-4.1,1.76-6.78,2.85c-7.01-8.52-14.88-16.72-21.14-26C283.04,606.68,289.26,585.15,308.11,574.87z M323.17,619.23
				c9.68-1.3,14.79-6.48,14.79-15c0-6.75-4.38-12.37-11.17-14.34c-5.5-1.6-12.64,1.45-15.8,6.74c-3.39,5.67-2.85,13.4,2.02,17.66
				C315.61,616.56,319.28,617.62,323.17,619.23z"/>
			<path class="st10" d="M945.07,580.11c23.58,13.53,25.16,40.93,3.62,60.37c-5.93-4.38-12.42-7.82-20-7.84
				c-4.84-0.01-9.7,0.88-14.52,1.53c-1.88,0.25-4.1,1.89-5.45,1.29c-2.74-1.22-5.7-3.06-7.34-5.47
				c-7.13-10.53-8.42-21.96-2.96-33.57c5.42-11.52,14.62-18.31,27.49-19.63C932.46,576.12,938.84,576.82,945.07,580.11z
				 M915.58,613.82c4.7,9.28,11.61,12.35,20.12,8.94c6.63-2.65,10.5-11.17,8.11-17.85c-2.71-7.57-10.5-11.82-17.67-9.64
				C917.9,597.79,915.24,602.21,915.58,613.82z"/>
			<path class="st4" d="M622.89,849.69c0.04,8.32,1.69,16.07,6.19,23.48c-6.14,7.23-12.31,14.47-18.78,22.09
				c-6.23-7.27-12.18-14.2-18.11-21.15c-2.84-3.33-5.74-6.61-8.47-10.03c-18.23-22.89-2.6-53.32,22.31-55.93
				c8.32-0.87,17.17,0.94,23.62,5.88c-2.34,6.93-4.03,13.95-2.34,21.45c0.34,1.5-0.99,3.38-1.93,6.26
				c-0.73-7.83-4.23-12.5-10.47-14.7c-7.7-2.71-16.91,2.05-18.55,9.94c-1.72,8.28,1.18,14.73,10.09,17.92
				C613.04,857.25,618.08,853.99,622.89,849.69z"/>
			<path class="st10" d="M1020.29,581.45c-6.65-7.88-13.42-15.3-19.51-23.23c-8.1-10.58-9.51-22.4-3.92-34.54
				c5.48-11.91,14.95-18.75,28.2-19.87c6.83-0.58,13.43,0.22,19.12,3.84c-2.14,6.03-4.19,11.81-6.29,17.73
				c-3.39-2.84-7.73-4.81-12.32-3.31c-3.27,1.07-6.84,3.06-8.88,5.71c-5.33,6.91-3.78,15.76,3.29,20.7
				c6.34,4.43,14.69,4.31,21.21-4.68c4.05,5.35,8.17,10.79,12.58,16.61c-8.4,9.88-16.95,19.94-25.7,30.23
				C1025.37,587.45,1022.93,584.57,1020.29,581.45z"/>
			<path class="st10" d="M914.95,688.97c-9.73,5.92-10.43,20.03,1.83,26.88c-4.68,0-8.83-0.37-12.87,0.1c-4,0.47-7.89,1.79-12,2.77
				c-8.05-11.58-5.12-31.16,8.09-42.01c14.79-12.15,35.75-10.04,48.44,4.73c11.69,13.6,10.02,34.97-3.02,46.5
				c-6.79-4.06-13.35-7.98-19.09-11.41c2.34-2.02,5.96-4.31,8.43-7.5c2.79-3.61,2.77-8.3,0.95-12.45
				C932.59,689.41,924.7,684.13,914.95,688.97z"/>
			<path class="st12" d="M1208.02,579.88c2.15-4.34,5.21-7.74,7.52-11.66c2.28-3.86,7.83-6.12,12.34-8.21
				c2.77-1.28,5.37,0.86,5.87,3.91c0.68,4.16,1.12,8.42,0.97,12.62c-0.05,1.51-1.91,3.22-3.32,4.36c-2.41,1.93-5.31,3.27-7.67,5.25
				c-3.64,3.06-2.93,6.06,1.46,7.81c4.42,1.77,8.35,4.12,10.03,9.01c1.06,3.1-0.29,4.37-3.21,4.15c-1.5-0.12-3.04-0.68-4.42-1.34
				c-4.43-2.11-8.76-4.41-13.18-6.52c-3.75-1.79-6.12-0.44-6.21,3.71c-0.16,7.83-3.13,15.66-0.03,23.48
				c0.97,2.45,2.08,4.83,3.07,7.27c0.53,1.29,1.32,2.63,1.32,3.95c0.01,1.48-0.74,2.96-1.16,4.44c-1.1-1.05-2.37-1.98-3.26-3.19
				c-2.65-3.6-4.95-7.47-7.76-10.91c-2.66-3.25-4.48-6.34-2.78-10.73c1.89-4.88-2.07-8.11-3.84-11.96
				c-1.15-2.49-2.36-5.07-2.84-7.73c-2.11-11.58-0.28-23.12,1.16-34.59c0.46-3.64,2.45-7.17,4.1-10.57
				c2.17-4.49,4.6-8.88,7.13-13.18c0.73-1.24,2.19-2.05,3.31-3.05c0.52,1.72,1.25,3.41,1.44,5.16c0.08,0.76-0.87,1.72-1.52,2.44
				c-2.76,3.04-2.29,6.17-0.3,9.31c4.66,7.32,4.39,10.16-1.2,17c-2.11,2.58-4.36,5.32-5.46,8.38c-0.83,2.31-1.5,6.2,2.52,6.89
				C1205.54,585.94,1207.66,583.8,1208.02,579.88z"/>
			<path class="st13" d="M1301.19,733.21c3.99,5.95,8,11.51,11.5,17.39c0.87,1.46,0.08,3.91,0.05,5.91
				c-1.56-0.05-3.26,0.29-4.65-0.22c-7.46-2.74-14.96-5.46-22.2-8.71c-2.19-0.98-3.95-3.45-5.33-5.6c-2.33-3.63-4.56-5.71-9.12-3.05
				c-11.11,6.49-21.4,1.69-31.74-2.64c-1.33-0.56-3.19,0.15-4.8,0.29c-0.11,0.01-0.19,0.2-0.3,0.29c-7.11,6.23-7.09,6.21-14.88,1.07
				c-2.39-1.58-4.63-2.89-7.7-0.68c-1.34,0.96-3.89,0.25-5.89,0.3c0.44-1.64,0.62-3.42,1.39-4.89c0.61-1.17,2.1-1.85,2.86-2.98
				c0.83-1.24,2.02-2.92,1.74-4.09c-0.67-2.84,0.8-3.62,2.9-4.11c6.17-1.43,12.31-3.05,18.55-4.06c2.1-0.34,4.95,0.27,6.59,1.55
				c3.98,3.12,7.86,3.03,11.81,0.7c3.97-2.34,7.39-1.69,11.6-0.18c9.14,3.29,17.86,8.69,28.46,6.22
				C1296.34,724.72,1298.61,727.12,1301.19,733.21z"/>
			<path class="st4" d="M386.61,672.05c-5.64,6.69-11.07,13.15-16.51,19.62c2.23-10.52,0.66-20.29-4.67-29.47
				c9.09-4.86,12.56-10.97,10.6-18.49c-1.54-5.9-8.75-11.15-14.96-10.9c-7.48,0.3-12.54,5.31-14.2,13.98
				c-3.17-0.53-6.32-1.27-9.5-1.55c-3.03-0.27-6.1-0.06-9.15-0.06c-1.92-7.4,7.3-22.93,19.72-27.79
				c16.15-6.32,32.34-1.11,41.5,11.56C398.94,642.11,397.74,659.58,386.61,672.05z"/>
			<path class="st7" d="M1662.52,683.57c2.23-3.5,5.23-4.97,8.97-5.79c6.29-1.38,10.9-6.24,11.49-11.32
				c0.84-7.14-2.01-12.52-8.2-16.14c-1.25-0.73-2.19-2.22-2.93-3.55c-2.82-5.1-5.51-10.28-8.17-15.3c18.63-3.97,38.52,12,38.9,31.57
				c0.19,9.79-2.88,18.09-9.31,25.44c-8.35,9.54-16.42,19.33-24.9,29.35c-5.58-6.49-11.02-12.67-16.19-19.07
				c-0.54-0.67,0.12-2.92,0.89-3.92C1656.01,691.04,1659.22,687.46,1662.52,683.57z"/>
			<path class="st10" d="M904.04,639.31c-1.23,0.98-2.42,1.61-3.18,2.58c-3.78,4.82-7.28,8.05-14.81,6.59
				c-7.29-1.41-15.28,5.67-13.98,17.23c0.8,7.17,9.64,13.04,17.77,11.61c1.92,3.07,2.04,5.87,0.11,9.3
				c-4.53,8.05-5.37,16.75-3.15,25.74c0.31,1.24,0.34,2.56,0.5,3.84c-0.36,0.17-0.71,0.35-1.07,0.52c-1.5-1.7-3.02-3.37-4.48-5.09
				c-7.56-8.93-15.37-17.67-22.59-26.86c-8.36-10.65-9.68-22.63-4.03-34.87c5.65-12.22,15.52-18.97,29.12-19.83
				c8.27-0.52,15.85,1.41,22.79,6.91C905.97,637.8,905.12,638.46,904.04,639.31z"/>
			<path class="st3" d="M1104.13,939.84c3.94,0.83,6.28,2.15,3.52,6.27c-0.4,0.6-0.4,1.72-0.17,2.47c1.64,5.33-0.75,8.97-4.33,12.72
				c-9.29,9.76-19.18,18.68-31.18,25.01c-1.33,0.7-2.89,1.39-4.34,1.37c-7.63-0.11-15.26-0.28-22.86-0.84
				c-1.75-0.13-3.37-1.89-5.05-2.9c1.11-1.44,2.27-2.84,3.33-4.32c1.79-2.46,3.78-4.83,5.2-7.5c1.11-2.08,1.96-4.53,2.08-6.86
				c0.34-7.03,5.76-9.25,10.78-11.62c8.74-4.13,17.65-7.92,26.53-11.77c3.23-1.4,6.47-3.03,9.88-3.71
				C1099.44,937.8,1101.71,939.15,1104.13,939.84z"/>
			<path class="st9" d="M813.73,510.02c20.95-13.08,48.25-2.3,52.94,23.04c1.36,7.33,0.65,14.95-3.49,21.17
				c-5.49,8.23-12.1,15.71-18.78,23.31c1.33-9.53-0.12-18.29-4.84-26.81c6.52-4.37,9.84-10.37,7.26-17.97
				c-1.99-5.87-6.46-9.88-13.04-10.13c-8.07-0.31-12.84,4.29-15.2,10.99c-6.6,0-12.84,0-19.63,0
				C800.29,523.51,805.41,515.98,813.73,510.02z"/>
			<path class="st6" d="M134.15,397.07c5.89-2.02,11.64-4.95,17.7-5.9c17.14-2.7,32.89,9.67,36.63,25.47
				c3.12,13.19-0.99,24.38-10.05,34.05c-1.72,1.84-3.38,3.74-5.09,5.66c-3.25-1.36-4.38-3.89-4.99-7.13
				c-0.75-3.97-2.25-7.79-3.1-11.75c-0.26-1.21,0.1-3.01,0.88-3.93c6.09-7.19,5.19-15.89-2.69-22.02
				c-6.09-4.74-15.78-2.99-20.12,4.04c-1.13,1.84-2.25,2.08-4.34,1.97c-5.68-0.31-11.38-0.11-17.23-0.11
				c1.36-7.98,6.15-14.31,12.38-20.09C134.16,397.05,134.15,397.07,134.15,397.07z"/>
			<path class="st10" d="M899.11,569.9c-5.23,5.88-6.12,14.15-1.07,20.16c-2.1,8.74-4.01,16.68-5.87,24.42
				c-7.79-8.34-16.72-17.26-17.37-30.74c-0.87-18.05,12.27-33.85,30.46-35.82c22-2.39,36.44,14.77,37.52,27.89
				c-6-0.24-12.06-0.41-18.1-0.8c-0.88-0.06-1.93-0.92-2.5-1.71C916.36,565.24,908.13,563,899.11,569.9z"/>
			<path class="st10" d="M947.78,677.61c-1.08-0.94-1.85-1.85-2.82-2.35c-4.1-2.12-5.29-5.31-5.1-9.91
				c0.28-6.47-7.1-12.92-14.02-13.03c-7.43-0.12-14.57,5.87-14.6,12.74c-0.01,2.96-1.25,3.87-3.6,5.16c-5,2.75-9.63,6.16-14.37,9.28
				c-5.9-11.29-0.92-29.35,10.94-38.2c13.94-10.4,32.73-9.4,44.86,2.39c11.61,11.28,14.05,29.95,5.34,42.19
				C952.26,683.16,950.13,680.49,947.78,677.61z"/>
			<path class="st10" d="M1069.17,482.85c8.58-11.94,24.45-17.05,38.24-12.51c14.06,4.63,23.54,17.67,23.68,32.18
				c0.08,8.89-2.87,16.51-8.62,23.17c-4.04,4.69-8.01,9.43-12.43,14.09c2.3-9.48,1.74-18.59-2.56-27.24
				c6.79-9.08,5.25-17.46-2.89-23.47c-5.81-4.29-14.68-2.19-19.34,3.85c-7.14,0-13.93,0-21.56,0
				C1065.41,489.72,1067.2,486.4,1069.17,482.85z"/>
			<path class="st6" d="M160.23,432.99c3.55,5.36,5.84,10.84,6.23,17.51c-1.21-0.45-2.03-0.79-2.88-1.05
				c-4.53-1.41-9.12-2.63-13.57-4.26c-2.64-0.96-5.44-2.11-7.49-3.93c-4.84-4.3-10.07-5.61-15.81-3.22
				c-5.39,2.25-8.86,7.4-8.61,13.6c0.16,3.86-0.29,7.18-2.85,10.37c-1.8,2.24-2.88,5.15-3.87,7.91c-0.94,2.61-1.33,5.42-1.98,8.2
				c-9.1-6.71-13.7-21.35-10.48-33.45c3.63-13.63,12.54-22.39,26.12-25.26c13.35-2.83,24.99,1.32,33.89,12.05
				C159.3,431.9,159.68,432.32,160.23,432.99z"/>
			<path class="st12" d="M836.33,917.87c-1.6-4.16-0.7-5.18,3.02-5.81c5.92-1,10.99-0.36,15.58,4.08c1.18,1.14,4.95,1.19,6.39,0.16
				c3.9-2.79,7.66-2.36,11.68-1.09c2.29,0.72,4.49,1.97,6.82,2.23c5.41,0.62,7.41,3.47,8.31,8.75s-3.12,6.35-5.74,8.22
				c-1.29,0.92-4.62,0.13-6.35-0.96c-2.49-1.58-4.23-2.33-6.73-0.13c-0.79,0.7-2.86,0.59-4.02,0.1c-3.36-1.42-5.7-1.64-9.03,1.21
				c-3.28,2.81-8.16,4.39-12.56,5.08c-5.22,0.81-10.8-0.47-15.24,3.6c-0.29,0.27-0.81,0.51-1.17,0.45
				c-6.55-1.1-13.12,2.15-19.69-0.27c-4.63-1.7-6.18-3.93-5.16-8.9c0.64-3.15,1.58-6.24,2.39-9.35c0.5-0.01,0.99-0.02,1.49-0.03
				c2.28,2.56,4.57,5.12,7.09,7.94c2.25-2.65,4.49-5.15,6.57-7.78c1.36-1.72,2.52-2.01,4.61-0.88c4.54,2.46,9.26,4.62,14,6.69
				c5.63,2.45,10.99-0.07,16.44-0.79c0.25-0.46,0.5-0.91,0.76-1.37c-2.75-2.05-5.24-5.11-8.32-5.9
				C843.39,922.07,839.71,920.81,836.33,917.87z"/>
			<path class="st4" d="M638.57,825.31c-1.89,1.19-3.91,2.23-5.65,3.63c-1.36,1.09-2.37,2.6-3.67,4.07
				c-2.93-10.16,3.23-25.84,15.19-33.46c13.02-8.3,29.68-7.05,41.88,3.76c10.36,9.17,14.07,25.44,8.17,38.26
				c-0.68-1.25-1.1-2.37-1.81-3.27c-3.53-4.5-6.95-9.11-10.78-13.34c-2.78-3.08-6.21-5.56-9.24-8.43
				c-4.49-4.25-10.94-5.15-16.35-2.22c-4.17,2.26-8.43,4.33-12.56,6.65c-1.92,1.07-3.63,2.51-5.32,4.09
				C638.54,825.34,638.55,825.32,638.57,825.31z"/>
			<path class="st4" d="M653.86,793.1c8.76-11.47,23.87-16.23,37.34-11.76c14.29,4.74,23.63,17.5,23.86,32
				c0.15,9.04-2.61,16.81-8.54,23.57c-3.42,3.9-6.69,7.92-10.03,11.89c-0.37-0.12-0.74-0.24-1.1-0.36c0.3-1.61,0.32-3.33,0.94-4.81
				c4.21-10,4.21-19.92-0.16-29.86c-1.54-3.51-2.22-7.87-4.75-10.39c-6.09-6.1-14.34-8.66-22.63-10.15
				c-4.6-0.83-9.49-0.05-14.61-0.08C653.83,793.08,653.86,793.1,653.86,793.1z"/>
			<path class="st4" d="M574.06,787.98c10.4-7.02,21.17-8.36,32.22-4.27c-2.74,4.88-5.32,9.68-8.15,14.32
				c-0.56,0.92-2.07,1.71-3.18,1.77c-10.53,0.65-16.85,8.72-14.82,19c0.22,1.13,0.45,2.62-0.09,3.47
				c-4.23,6.71-6.17,14.03-6.11,21.96c-0.37,0.18-0.74,0.36-1.12,0.54c-3.39-5.03-7.05-9.91-10.01-15.18
				c-0.9-1.61,0.19-4.28,0.21-6.47c0.03-4.18,1-8.73-0.33-12.46c-2.57-7.22,1.38-11.82,5.03-16.69
				C569.38,791.76,571.75,790.06,574.06,787.98z"/>
			<path class="st13" d="M898.29,954.34c10.66-2.69,18.7-0.08,24.09,9.57c1.33,2.38,3.59,4.24,5.42,6.34
				c5.36-5.11,8.6-4.94,13.84,0.53c1.36,1.42,3.24,2.48,4.23,4.1c1.16,1.88,2.53,4.42,2.08,6.24c-0.39,1.59-3.14,3.58-4.94,3.69
				c-10,0.58-20.39,2.48-28.34-6.53c-1.56-1.76-4.14-2.82-6.44-3.7c-6.01-2.28-12.29-3.91-18.11-6.57c-2.61-1.19-4.7-3.99-6.43-6.47
				c-1.51-2.17-0.2-4.29,2.2-4.9C889.84,955.65,893.9,955.1,898.29,954.34z"/>
			<path class="st4" d="M602.54,792.83c12.75-21.39,40.96-22.11,54.59-6.38c-2.14,2.55-4.09,5.31-6.51,7.6
				c-1.58,1.49-3.92,2.15-5.74,3.43c-2.72,1.91-3.73-0.89-5.36-1.79c-6.88-3.78-15.58-1.28-19.62,5.84
				c-0.88,1.55-1.52,3.25-2.23,4.79c-3.4,0-6.75-0.2-10.07,0.06c-3.15,0.24-6.27,0.97-10.54,1.67
				C598.96,802.69,600.66,797.89,602.54,792.83z"/>
			<path class="st6" d="M134.18,397.04c-2.05,1.36-4.21,2.61-6.14,4.15c-1.07,0.85-1.91,2.1-2.58,3.33
				c-2.22,4.09-4.7,7.42-9.61,9.11c-4.2,1.44-6.3,5.65-7.19,10.16c-0.23,1.14-0.77,2.41-1.58,3.22
				c-5.75,5.75-9.36,12.58-10.77,21.42c-4.47-4.22-6.01-9.21-7.08-14.27c-3.97-18.65,8.73-36.05,25.29-39.93
				c6-1.41,11.95-1.4,17.84,0.36c0.62,0.18,0.97,1.25,1.62,2.2C134.15,397.07,134.16,397.05,134.18,397.04z"/>
			<path class="st10" d="M467.93,778.64c-1.04-8.7-5.26-15.4-10.64-21.67c7.62,2.21,13.39,6.85,17.43,13.6
				c8.2,13.73,7.01,28.27-3.36,40.77c-8.36,10.08-16.88,20.03-25.73,30.51c-2.62-3.06-5.02-5.88-7.56-8.85
				c7.22-8.5,14.31-16.71,21.26-25.04C466.32,799.56,469.8,790.05,467.93,778.64z"/>
			<path class="st10" d="M278.43,642.9c1.17-8.84,5.42-15.52,11.59-21.07c3.62,4.52,7.07,8.75,10.4,13.07
				c0.48,0.62,0.81,1.98,0.46,2.53c-5.31,8.62-3.72,15.97,3.1,21.44c-2.53,8.35-4.89,16.13-7.19,23.73
				c-7.4-8.92-17.4-17.27-18.68-30.96C277.85,648.88,278.27,646.05,278.43,642.9z"/>
			<path class="st13" d="M1431.6,857.8c-0.21-6.01-0.41-11.64-0.56-17.27c-0.18-6.78,4.33-11.71,6.98-17.36
				c1-2.14,1.95-4.36,3.33-6.24c0.97-1.32,2.54-2.73,4.02-2.96c1.26-0.19,3.27,0.9,4.08,2.04c5.94,8.37,6.59,16.89,2.23,26.6
				c-4.07,9.05-9.29,17.24-14.74,25.38c-0.68,1.02-2.08,1.57-3.14,2.33c-0.76-1.37-2.01-2.68-2.19-4.12
				C1431.3,863.57,1431.59,860.86,1431.6,857.8z"/>
			<path class="st12" d="M997.64,935.39c-3.37,1.44-6.34,3.48-9.53,3.92c-3.73,0.51-7.9,0.34-11.42-0.87
				c-2.83-0.97-4.75-1.06-7.45,0.15c-4.78,2.15-9.64,5.15-14.87,2.18c3.17-5.68,6.47-11.59,10.15-18.17
				c-0.71,0.25-0.41,0.03-0.19,0.08c5.15,1.36,10,2.02,15.54,0.36c4.31-1.29,9.49-0.02,14.24,0.53c8.32,0.96,16.33,0.8,23.65-4.03
				c1.91-1.26,4.85-2.43,5.73,0.39c0.55,1.77-0.82,5.29-2.44,6.36c-3.34,2.21-7.38,3.4-11.19,4.84
				C1005.93,932.63,1001.92,933.91,997.64,935.39z"/>
			<path class="st5" d="M170.64,533.54c1.22-0.46,2.59-0.67,3.71-1.32c13.6-8.03,30.1-6.41,41.86,4.21c0.7,0.63,1.26,1.42,2.34,2.67
				c-4.46-0.85-8.2-1.63-11.97-2.25c-8.83-1.45-16.67,1.3-24.05,5.84c-0.43,0.27-0.65,0.88-0.89,1.63c0.08,0.3,0.1,0.28,0.1,0.28
				c-1.31,0.61-2.93,0.92-3.89,1.88c-9.85,9.79-13.37,21.49-10.3,35.09c0.23,1.04,0.44,2.08,0.28,3.23
				c-7.27-7.58-10.59-16.55-9.57-27.03c0.94-9.6,6.24-16.92,12.46-23.96C170.6,533.51,170.68,533.58,170.64,533.54z"/>
			<path class="st13" d="M1178.35,735.68c0.89,0.93,1.52,1.71,2.29,2.32c3.86,3.09,3.45,5.72-0.75,8.5
				c-9.05,5.97-18.93,6.5-29.18,5.02c-1.14-0.16-2.57-0.78-3.21-1.66c-3.43-4.77-6.62-9.72-9.97-14.54
				c-2.17-3.12-1.03-4.76,2.33-5.1c8.83-0.89,17.67-1.9,26.53-2.28C1171.7,727.7,1174.58,732.38,1178.35,735.68z"/>
			<path class="st14" d="M1408.77,646.91c-7.71,0.94-12.3-4.88-17.87-8.65c-3.02-2.05-5.75-4.51-8.68-6.7
				c-0.77-0.57-1.78-1.16-2.68-1.16c-7.72,0-15.42-0.33-22.16,4.84c-5.4,4.13-10.61,8.64-18.21,9c-2.33,0.11-4.69,3.27-6.7,5.36
				c-3.01,3.13-5.55,6.72-8.62,9.78c-2.92,2.91-5.95,1.96-7.58-1.88c-0.59-1.39-1.18-3.47-2.24-3.82c-2.25-0.73-4.81-0.53-7.24-0.71
				c0.6,1.93,1.11,3.89,1.82,5.78c0.39,1.04,1.13,1.95,1.65,2.94c4.03,7.75,8.61,10.53,17.02,8.08
				c11.97-3.49,19.99,0.98,26.79,10.36c4.27,5.9,9.15,11.39,14.12,16.74c3.45,3.71,8.28,2,12.53,1.83
				c3.91-0.15,7.79-0.94,11.69-1.44c0.42-0.05,0.87,0.05,1.27-0.07c6.79-1.98,13.66-3.76,20.34-6.05c6.61-2.26,9.98,0.02,10.97,6.9
				c0.93,6.43-2.07,10.74-6.14,14.77c-2.43,2.4-5.04,0.89-7.43-0.25c-3.42-1.64-6.69-3.57-10.12-5.18
				c-0.84-0.39-2.42-0.49-2.98,0.02c-4.27,3.91-8.37,8-12.52,12.33c-8.71-1.71-16.54,0.99-24.2,4.71c-2.27,1.11-5.85-0.96-7.14-4.12
				c-1.29-3.18,1.51-3.51,3.3-4.23c5.37-2.17,10.64-0.23,15.12,2.04c8.38,4.25,6.87,2.29,14.46-3.32c1.12-0.82,1.9-2.08,2.92-3.05
				c8.24-7.9,10.38-7.98,20.05-1.85c1.97,1.25,5.79,2.71,6.76,1.84c2.74-2.43,6.97-4.31,6.61-9.13c-0.03-0.42-0.02-0.85-0.03-1.27
				c-0.24-9.86-2.53-11.39-11.56-7.72c-0.65,0.27-1.3,0.6-1.98,0.74c-11.77,2.39-23.33,6.12-35.43,6.34
				c-2.7,0.05-6.14-1.67-8.05-3.7c-6.75-7.14-12.85-14.88-19.46-22.16c-3.48-3.84-7.85-5.64-13.36-4.56
				c-4.83,0.95-9.81,1.44-14.74,1.51c-1.84,0.03-4.24-1.26-5.45-2.72c-2.87-3.44-5.33-7.24-7.64-11.09
				c-0.94-1.56-1.73-3.81-1.28-5.36c0.27-0.9,3.12-1.4,4.83-1.46c3.78-0.13,6.84,0.93,8.02,5.28c0.96,3.51,3.02,4.03,5.51,1.52
				c2.96-2.98,5.73-6.18,8.26-9.53c2.5-3.3,5.5-5.02,9.55-6.28c5.23-1.62,10.57-4.13,14.77-7.58c7.48-6.14,15.99-6.35,24.49-5.26
				c3.6,0.46,6.82,4.12,10.13,6.44c4.04,2.83,7.88,5.94,12.03,8.59C1404.17,645.54,1406.54,645.92,1408.77,646.91z"/>
			<path class="st4" d="M671.03,779.54c-1.93-0.04-3.52-0.06-5.09-0.27c-2.88-0.38-6.12-1.91-8.54-1.07
				c-3.94,1.37-6.81,0.29-10.29-1.07c-4.66-1.82-9.68-2.74-14.81-4.11c6.95-9.27,16.62-14,28.1-13.58
				c13.42,0.49,23.73,6.91,29.69,18.6C683.8,778.53,677.59,779,671.03,779.54z"/>
			<path class="st13" d="M412.08,693.61c3.31,3.87,6.43,7.51,9.94,11.63c0.9-1.4,1.73-2.7,2.42-3.78c3.23,2.49,6.02,4.4,8.44,6.7
				c0.64,0.61,0.69,3.02,0.07,3.6c-3.08,2.88-6.42,5.52-9.82,8.02c-0.88,0.65-2.98,1.14-3.43,0.67
				c-3.73-3.92-10.33-4.95-11.31-11.78c-0.4-2.79-2.27-5.43-3.7-8c-0.49-0.88-1.68-1.91-2.57-1.93c-6.63-0.17-7.42-5.76-9.34-10.06
				c-1.12-2.52-1.62-5.43-1.78-8.2c-0.05-0.96,2.12-3.07,2.66-2.88c2.79,0.97,5.86,2,7.93,3.97
				C405.37,685.15,408.49,689.41,412.08,693.61z"/>
			<path class="st4" d="M730.27,836.33c-1.29,0.59-2.85,0.9-3.84,1.82c-14.21,13.25-15.28,35.29-2.59,49.95
				c6,6.93,11.9,13.95,17.69,21.05c0.76,0.93,0.59,2.63,0.84,3.97c-0.51,0.16-1.01,0.32-1.52,0.48c-4.4-5.09-8.82-10.15-13.19-15.26
				c-4.21-4.93-8.45-9.84-12.55-14.87c-8.36-10.26-11.15-21.8-6.39-34.31c4.75-12.51,13.88-20.35,27.44-22.13
				c4.08-0.53,8.28-0.08,12.53,0.42c-6.63,2.04-13.62,2.99-18.56,8.6C730.24,836.37,730.26,836.34,730.27,836.33z"/>
			<path class="st5" d="M183.4,551.41c0.37-0.01,0.73-0.01,1.46,0.05c0.36,0.07,0.53,0.29,0.53,0.29
				c-2.4,5.78-5.52,11.37-7.04,17.37c-2.74,10.82,0.61,20.64,7.5,29.12c7.7,9.49,15.75,18.71,23.7,28.1
				c-1.71,1.94-3.2,3.61-5.15,5.81c-2.02-2.32-4.01-4.56-5.95-6.84c-7.01-8.26-14.33-16.29-20.92-24.87
				c-11.5-14.95-9.99-32.88,3.36-46.12c0.8-0.79,1.59-1.6,2.46-2.67C183.41,551.39,183.4,551.41,183.4,551.41z"/>
			<path class="st12" d="M1007.67,816.5c-4.92-3.24-6.04-7.29-4.26-12.57c0.93-2.77,0.55-6.01,1.63-8.68
				c1.14-2.83,2.86-5.79,5.16-7.68c2.62-2.15,4.65-0.69,4.93,2.86c0.16,1.97,0.42,3.92,0.63,5.88c0.51,0.1,1.02,0.2,1.52,0.31
				c0.74-1.31,1.61-2.57,2.2-3.95c1.38-3.19,4.41-4.78,7.47-3.55c3.43,1.38,2.18,4.08,1.53,6.48c-0.94,3.44-3.31,6.61-1.48,10.52
				c0.32,0.68-0.27,1.92-0.68,2.78C1023.95,813.92,1013.27,818.41,1007.67,816.5z"/>
			<path class="st10" d="M886.32,723.53c1.34-0.42,2.7-0.78,4.01-1.28c4.76-1.84,9.51-3.74,14.58-4.92
				c-7.06,3.69-13.4,7.99-17.92,14.64c-9.4,13.82-8.41,31.55,2.47,44.23c6.43,7.5,12.75,15.09,19.24,22.55
				c1.71,1.97,2.22,3.51-0.58,5.34c-5.45-6.37-10.94-12.74-16.39-19.15c-2.29-2.68-4.34-5.59-6.79-8.11
				c-12.53-12.84-14.94-30.09-4.34-46.43c-0.11-0.24-0.16-0.12,0.14-0.1c2.1-2.26,3.89-4.54,5.67-6.79
				C886.39,723.56,886.32,723.53,886.32,723.53z"/>
			<path class="st14" d="M750.47,919.5c2.37-1.47,4.53-3.17,7.5-5.49c0.87,1.69,2.4,3.46,2.51,5.31c0.06,1.06-2.03,2.53-3.44,3.32
				c-4.78,2.7-9.95,4.81-10.07,11.65c-0.06,3.24-1.99,4.81-5.4,3.85c0.36-8.17-2.69-12.58-10.6-15.6c-2.38-0.91-4.7-1.94-7.08-2.85
				c-2.87-1.1-3.63-3.4-3.47-6.13c0.18-3.22,2.13-4.37,4.79-2.63c3.06,1.99,6.08,2.72,9.64,1.56c0.88-0.29,2.33,0.29,3.16,0.94
				c1.17,0.91,2.01,2.24,3.39,3.87c1.13-1.59,2.1-2.95,3.27-4.6C746.83,915.25,748.55,917.26,750.47,919.5z"/>
			<path class="st12" d="M778.74,918.75c5.02-4.78,10.34-6.54,16.85-3.96c4.43,1.75,5.89,4.23,3.71,8.48
				c-1.98,3.87-4.23,7.67-6.87,11.11c-3.66,4.77-12.88,5.35-17.23,1.34c-0.68-0.63-1.09-2-0.99-2.96c0.35-3.15,0.78-6.33,1.6-9.38
				C776.25,921.76,777.56,920.38,778.74,918.75z"/>
			<path class="st12" d="M927.85,796.35c-2.16,5.04-0.99,9.43,2.01,13.87c1.97,2.93,3.04,6.47,4.76,10.28
				c-1.34,0.3-2.6,0.81-3.87,0.84c-4.36,0.09-8.75,0.3-13.08-0.06c-6.12-0.51-10.42-4.65-12.25-10.39
				c-1.14-3.57-2.91-6.94-3.72-10.85c2.17,2.42,4.33,4.85,6.87,7.68c1.23-1.49,2.46-2.98,3.79-4.57c1.52,1.8,2.88,3.41,3.63,4.3
				c3.91-3.5,7.83-7.02,11.83-10.81C927.89,796.36,927.85,796.35,927.85,796.35z"/>
			<path class="st14" d="M1062.75,922.37c-1.91-4.98,2.23-6.01,4.87-7.88c6.35-4.49,13.5-5.03,20.98-4.13
				c3.35,0.4,6.83-0.1,10.13,0.49c1.45,0.26,3.31,2.07,3.64,3.49c0.23,1.01-1.54,3.04-2.87,3.7c-1.54,0.76-3.67,0.25-5.39,0.76
				c-5.86,1.75-11.98,3.07-17.39,5.77C1071.19,927.32,1067.1,926.32,1062.75,922.37z"/>
			<path class="st12" d="M837.31,592.13c5.83-7.68,11.62-15.4,17.52-23.03c1.96-2.54,4.2-4.86,5.7-6.58
				c2.75,3.37,4.99,7.03,8.09,9.71c4.08,3.53,5.31,7.43,3.72,13.24c-12.35-2.75-24.49-2.94-34.9,6.47
				C837.27,592.15,837.31,592.13,837.31,592.13z"/>
			<path class="st14" d="M1336.62,876.13c2.16,0.61,4.65,0.92,5.79,2.33c0.86,1.06,0.36,3.64-0.17,5.33
				c-2.04,6.46-6.61,11.25-11.29,15.87c-1.69,1.67-3.56,3.61-5.7,4.26c-2.49,0.76-5.37,0.25-8.09,0.3c0.42-2.17,0.5-4.48,1.31-6.5
				C1322.08,888.67,1329.62,882.8,1336.62,876.13z"/>
			<path class="st11" d="M460.07,616.46c13.95-7.93,30.93-4.12,38.25,3.57c-12.53-3-23.52-0.54-33.57,6.96
				c-2.99,2.23-6.7,3.5-10.34,5.35c-1.39-2.05-2.94-4.35-5.02-7.42C452.88,622.14,456.34,619.38,460.07,616.46z"/>
			<path class="st11" d="M473,624.35c11.82-6.33,23.41-5.05,34.22,2.05c15.25,10.01,19.57,30.26,10.32,45.94
				c-0.2,0.34-0.59,0.57-1.39,1.31c2.35-7.91,3.13-15.2,1.19-22.85c-4-15.77-20.2-29.01-39.01-26.62c-1.54,0.2-3.1,0.23-5,0.24
				C472.96,624.32,473,624.35,473,624.35z"/>
			<path class="st14" d="M1043.23,639.91c3.12,3.98,1.65,11.16-2.54,13.25c-0.65,0.33-1.93,0.46-2.34,0.07
				c-5.21-4.93-10.47-2.33-15.75-0.27c-0.21,0.08-0.48,0.01-0.8,0.01c0.17-2.96,0.35-5.88,0.49-8.33c3.18-1.93,6.2-3.63,9.07-5.55
				C1035.13,636.55,1038.82,636.66,1043.23,639.91z"/>
			<path class="st13" d="M468.87,709.24c2.49,2.86,4.77,5.52,7.51,8.73c1.03-1.42,1.99-2.75,3.2-4.42c1.77,2.12,3.46,3.03,4.92-0.6
				c1.22,4.79,1.2,8.65-2.46,11.24c-4.08,2.89-8.8,5.24-13.71,2.78c-1.8-0.9-3.48-4.37-3.24-6.45
				C465.53,716.6,467.39,712.86,468.87,709.24z"/>
			<path class="st4" d="M765.88,825.25c13.1,5.67,22.86,18.51,20.46,27.95c-3.96-8.82-8.8-16.37-17.08-20.14
				c-7.98-3.64-16.5-6.08-24.04-8.79C751.29,821.94,758.43,822.57,765.88,825.25z"/>
			<path class="st5" d="M181.71,544.61c5.87-2.06,11.66-4.5,17.68-6.05c3.24-0.84,6.88-0.15,9.63-0.15
				c-7.43,3.2-15.24,6.51-22.99,9.96c-1.07,0.48-1.85,1.6-2.69,2.73c0.07,0.31,0.08,0.29,0.09,0.28c-1.3,0.6-2.88,0.93-3.88,1.86
				c-5.89,5.5-9.5,12.31-11.11,20.2c-0.19-11.57,4.57-20.82,13.23-28.58C181.74,544.59,181.72,544.61,181.71,544.61z"/>
			<path class="st11" d="M460.47,696.18c-4.44-5.31-8.71-10.37-12.87-15.51c-1.75-2.16-2.53-4.43,0.06-5.75
				c9.65,11.57,19.13,23.02,28.71,34.38c1.49,1.77,2.35,3.16-0.46,4.91C470.86,708.3,465.77,702.35,460.47,696.18z"/>
			<path class="st4" d="M385.11,682.41c-9.28,11-18.38,21.75-27.48,32.51c-0.38-0.02-0.75-0.03-1.13-0.05
				c-0.11-1.03-0.72-2.48-0.26-3.04c10.87-12.95,21.86-25.79,32.84-38.66c0.05-0.06,0.22-0.02,1.12-0.08
				C388.44,676.36,386.86,679.26,385.11,682.41z"/>
			<path class="st14" d="M243.66,553.95c-1.75-1.78-3.5-3.55-5.54-5.29c-0.3,0.04-0.36,0.13-0.32,0.09
				c-5.47-3.56-10.97-7.08-16.47-10.6c3.47-5.08,6.43-3.33,12.53,0.2c5.71,3.31,8.97,8.38,9.73,15.32
				C243.63,554,243.66,553.95,243.66,553.95z"/>
			<path class="st14" d="M291.62,587.96c-3.08-0.92-5.85-2.32-8.78-2.96c-6.51-1.42-10.45-6.12-14.47-10.71
				c-2.27-2.6-4.23-5.48-6.24-8.3c-3.55-4.94-8.54-6.43-14.69-6.11c-0.37,0.01-0.34,0.01-0.38-0.24c-0.3-0.65-0.55-1.06-0.81-1.46
				c-0.78-1.24-1.56-2.49-2.46-3.98c-0.13-0.25-0.16-0.2-0.19-0.18c3.58,3.39,7.95,4.46,12.72,5.45c2.82,0.58,5.25,3.91,7.44,6.38
				c3.92,4.42,6.88,9.96,11.45,13.45c4.05,3.1,9.74,4.08,14.73,5.92C291.26,585.7,293.58,585.21,291.62,587.96z"/>
			<path class="st14" d="M1050.37,918.28c0.84,0.69,1.87,1.44,1.79,2.04c-0.67,5.26-7.83,8.93-12.44,6.2
				c-1.01-0.6-1.84-3.27-1.34-4.31c1.38-2.89,3.81-4.83,7.46-4.24C1047.23,918.19,1048.65,918.18,1050.37,918.28z"/>
			<path class="st14" d="M691.96,870.05c2.14-4.49,4.75-5.73,8.32-3.81c0.69,0.37,1.19,2.81,0.94,2.98
				c-3.85,2.46-7.85,4.71-12.34,6.14C689.86,873.69,690.85,872.01,691.96,870.05z"/>
			<path class="st14" d="M880.46,730.11c-0.55-0.53-1.6-1.2-1.51-1.44c1.41-3.68,2.97-7.31,4.85-11.78c0.93,1.53,1.5,2.48,2.16,3.56
				c1.1-1.03,1.8-1.68,2.5-2.34c0.36,0.19,0.71,0.39,1.07,0.58c-0.59,1.06-1.12,2.16-1.78,3.18c-0.29,0.45-0.84,0.72-1.35,1.36
				c-0.08,0.29-0.01,0.31-0.28,0.26c-2.07,2.23-3.87,4.51-5.67,6.79C880.44,730.29,880.5,730.17,880.46,730.11z"/>
			<path class="st5" d="M185.13,551.42c0.48-0.64,1.05-1.17,1.63-1.71c0.36,0.35,0.72,0.7,1.08,1.04c-0.66,0.27-1.32,0.55-2.22,0.91
				C185.39,551.75,185.22,551.53,185.13,551.42z"/>
			<path class="st12" d="M930.11,795.84c0.14-0.58,0.29-1.15,0.15-0.59c0.4-0.63,0.15-0.23-0.15,0.37
				C930.07,795.82,930.11,795.84,930.11,795.84z"/>
			<path class="st11" d="M472.95,624.3c-0.28,0.24-0.55,0.49-0.81,0.75c-0.09-0.14-0.19-0.28-0.28-0.41c0.22-0.1,0.44-0.19,0.9-0.29
				C473,624.35,472.96,624.32,472.95,624.3z"/>
			<path class="st12" d="M927.91,796.35c0.55-0.14,1.09-0.28,1.91-0.46c0.29-0.05,0.25-0.08,0.23-0.07
				c-0.59,0.06-1.16,0.13-1.96,0.36C927.85,796.35,927.89,796.36,927.91,796.35z"/>
			<path class="st0" d="M246.26,558.44c0.25,0.15,0.51,0.56,0.79,1.22C246.81,559.5,246.54,559.1,246.26,558.44z"/>
			<path class="st4" d="M653.81,793.06c-0.07,0.17-0.12,0.35-0.17,0.54c-0.03-0.13-0.06-0.26,0.06-0.44
				C653.86,793.1,653.83,793.08,653.81,793.06z"/>
			<path class="st12" d="M837.26,592.17c-0.01,0.02-0.13-0.03-0.13-0.03s0.18,0.1,0.18,0.04S837.27,592.15,837.26,592.17z"/>
			<path class="st9" d="M721.15,623.69c10.46-9.02,22.14-11.34,34.8-6.97c12.81,4.42,20.27,13.97,22.45,27.11
				c1.52,9.16-0.5,18.05-6.5,25.4c-8.89,10.91-18.14,21.53-27.45,32.53c-7.6-8.96-15.19-17.45-22.21-26.38
				c-4.02-5.11-8.28-10.55-10.36-16.56C707.31,645.6,711.14,633.79,721.15,623.69z M731.95,640.26c-4.04,8.44-1.3,15.22,4.71,19.6
				c5.29,3.85,12.71,2.94,17.73-1.44c4.74-4.14,5.93-9.49,4.38-14.87c-1.64-5.72-6.01-9.85-12.23-10.64
				C740.58,632.16,735.67,634.57,731.95,640.26z"/>
			<path class="st9" d="M693.62,583.56c17.2,5.05,27.5,20.02,25.41,37.13c-0.31,2.52-2.81,4.71-3.92,7.21
				c-2.09,4.7-5.98,6.66-10.46,8.71c-11.18,5.12-18.14,13.95-20.35,26.24c-0.25,1.37-0.64,2.71-1.11,4.7
				c-9.15-10.97-18.7-21.17-26.75-32.44c-8.08-11.31-7.99-23.97-0.84-35.97c6.91-11.59,17.51-17.06,31.05-16.57
				C688.86,582.65,691.06,583.18,693.62,583.56z M688.24,629.47c5.91-0.97,9.61-4.78,11.08-10.17c1.51-5.55,0.17-10.64-4.47-14.77
				c-5.13-4.57-11.81-5.37-17.55-1.5c-5.73,3.87-8.11,11.2-5.97,17.21C673.26,625.64,680.86,631.64,688.24,629.47z"/>
			<path class="st9" d="M738.13,700.68c-6.17,7.18-12.14,14.12-18.32,21.31c-5.64-6.57-11.14-12.92-16.58-19.33
				c-3.55-4.19-7.1-8.39-10.47-12.73c-14.17-18.23-6.73-44.49,14.92-52.8c0.64-0.25,1.32-0.42,2.03-0.65
				c-0.52,4.5-1.53,8.99-1.41,13.46c0.13,4.75,0.16,8.99-2.07,13.63c-2,4.15-1.28,9.34,2.3,13.32c3.77,4.2,8.12,6.71,14.07,5.47
				c1.01-0.21,2.62,0.18,3.26,0.91c4.13,4.64,8.12,9.4,12.03,14.24C738.43,698.18,738.2,699.45,738.13,700.68z"/>
			<path class="st9" d="M736,607.55c-4.86-5.13-10.37-5.32-15.91-3.3c-3.44-5.09-6.79-10.07-10.16-15.06
				c7.53-5.3,21.19-5.83,31.4-0.5c10.8,5.64,16.92,14.69,18.52,26.38c-6.61-0.99-13.04-1.96-20.25-3.04
				C738.96,611.22,737.59,609.49,736,607.55z"/>
		</g>
	</g>
</g>
</svg>
