<svg width="20" height="21" viewBox="0 0 20 21" fill="none" xmlns="http://www.w3.org/2000/svg">
<g clip-path="url(#clip0_2569_3556)">
<path d="M9.99175 2.16699C5.39175 2.16699 1.66675 5.90033 1.66675 10.5003C1.66675 15.1003 5.39175 18.8337 9.99175 18.8337C14.6001 18.8337 18.3334 15.1003 18.3334 10.5003C18.3334 5.90033 14.6001 2.16699 9.99175 2.16699ZM10.0001 17.167C6.31675 17.167 3.33341 14.1837 3.33341 10.5003C3.33341 6.81699 6.31675 3.83366 10.0001 3.83366C13.6834 3.83366 16.6667 6.81699 16.6667 10.5003C16.6667 14.1837 13.6834 17.167 10.0001 17.167ZM9.81675 6.33366H9.76675C9.43342 6.33366 9.16675 6.60033 9.16675 6.93366V10.867C9.16675 11.1587 9.31675 11.4337 9.57508 11.5837L13.0334 13.6587C13.3167 13.8253 13.6834 13.742 13.8501 13.4587C14.0251 13.1753 13.9334 12.8003 13.6417 12.6337L10.4167 10.717V6.93366C10.4167 6.60033 10.1501 6.33366 9.81675 6.33366Z" fill="#888888"/>
</g>
<defs>
<clipPath id="clip0_2569_3556">
<rect width="20" height="20" fill="white" transform="translate(0 0.5)"/>
</clipPath>
</defs>
</svg>
