<svg width="7" height="7" viewBox="0 0 7 7" fill="none" xmlns="http://www.w3.org/2000/svg">
<path d="M3.12541 0C1.39955 0 0.000810054 1.42089 0.000810054 3.17448C0.000810054 3.90095 0.243699 4.56637 0.646478 5.10207C0.464617 5.70339 0.0862482 6.21314 0.0801455 6.21924C-0.000410491 6.32607 -0.0223803 6.48175 0.0240004 6.61605C0.0703811 6.75036 0.176569 6.83735 0.293741 6.83735C1.04438 6.83735 1.63634 6.44512 1.99152 6.13072C2.34426 6.26961 2.72507 6.34897 3.12541 6.34897C4.85126 6.34897 6.25 4.92808 6.25 3.17448C6.25 1.42089 4.85126 0 3.12541 0ZM3.12541 5.61639C2.79952 5.61639 2.4773 5.55382 2.1685 5.43172L1.89143 5.32184L1.65343 5.53245C1.47889 5.6866 1.23966 5.85906 0.951615 5.97505C1.04071 5.79038 1.12737 5.58282 1.1945 5.36152L1.32388 4.93266L1.07245 4.59995C0.85153 4.30539 0.586672 3.81854 0.586672 3.17448C0.586672 1.82838 1.72544 0.732573 3.12541 0.732573C4.52537 0.732573 5.66414 1.82838 5.66414 3.17448C5.66414 4.52059 4.52537 5.61639 3.12541 5.61639Z" fill="#888888"/>
</svg>
