<svg width="8" height="9" viewBox="0 0 8 9" fill="none" xmlns="http://www.w3.org/2000/svg">
<path d="M3.75 1.57048C2.95435 1.57048 2.19129 1.91626 1.62868 2.53174C1.06607 3.14722 0.75 3.98199 0.75 4.85241C0.75 5.72283 1.06607 6.5576 1.62868 7.17308C2.19129 7.78856 2.95435 8.13434 3.75 8.13434C4.54565 8.13434 5.30871 7.78856 5.87132 7.17308C6.43393 6.5576 6.75 5.72283 6.75 4.85241C6.75 3.98199 6.43393 3.14722 5.87132 2.53174C5.30871 1.91626 4.54565 1.57048 3.75 1.57048ZM0 4.85241C0 2.58665 1.67888 0.75 3.75 0.75C5.82113 0.75 7.5 2.58665 7.5 4.85241C7.5 7.11817 5.82113 8.95482 3.75 8.95482C1.67888 8.95482 0 7.11817 0 4.85241ZM3.75 2.39096C3.84946 2.39096 3.94484 2.43419 4.01517 2.51112C4.08549 2.58806 4.125 2.6924 4.125 2.8012V4.68257L5.14012 5.79309C5.20843 5.87047 5.24623 5.97409 5.24538 6.08166C5.24452 6.18922 5.20509 6.29211 5.13556 6.36818C5.06603 6.44424 4.97197 6.48738 4.87365 6.48832C4.77533 6.48925 4.6806 6.4479 4.60988 6.37317L3.48488 5.14245C3.41454 5.06553 3.37502 4.9612 3.375 4.85241V2.8012C3.375 2.6924 3.41451 2.58806 3.48484 2.51112C3.55516 2.43419 3.65054 2.39096 3.75 2.39096Z" fill="#888888"/>
</svg>
