<svg width="8" height="6" viewBox="0 0 8 6" fill="none" xmlns="http://www.w3.org/2000/svg">
<path d="M5 2.73515C5 3.09782 4.8683 3.44564 4.63388 3.70209C4.39946 3.95854 4.08152 4.10262 3.75 4.10262C3.41848 4.10262 3.10054 3.95854 2.86612 3.70209C2.6317 3.44564 2.5 3.09782 2.5 2.73515C2.5 2.37247 2.6317 2.02465 2.86612 1.7682C3.10054 1.51175 3.41848 1.36768 3.75 1.36768C4.08152 1.36768 4.39946 1.51175 4.63388 1.7682C4.8683 2.02465 5 2.37247 5 2.73515Z" fill="#888888"/>
<path d="M7.46045 2.56029C6.65115 0.873618 5.21408 0 3.75 0C2.2863 0 0.848845 0.873618 0.0395518 2.56029C0.013541 2.61452 0 2.67432 0 2.73494C0 2.79556 0.013541 2.85536 0.0395518 2.90958C0.848845 4.59626 2.28592 5.46988 3.75 5.46988C5.2137 5.46988 6.65115 4.59626 7.46045 2.90958C7.48646 2.85536 7.5 2.79556 7.5 2.73494C7.5 2.67432 7.48646 2.61452 7.46045 2.56029ZM3.75 4.68847C2.63657 4.68847 1.49913 4.05552 0.798592 2.73494C1.49913 1.41435 2.63619 0.781411 3.75 0.781411C4.86343 0.781411 6.00087 1.41435 6.70141 2.73494C6.00087 4.05552 4.86343 4.68847 3.75 4.68847Z" fill="#888888"/>
</svg>
