<svg width="12" height="12" viewBox="0 0 12 12" fill="none" xmlns="http://www.w3.org/2000/svg">
<path fill-rule="evenodd" clip-rule="evenodd" d="M3.52636 0.28375C4.16618 0.256136 4.37018 0.25 6 0.25C7.62982 0.25 7.83382 0.256648 8.47309 0.28375C9.11236 0.310852 9.54873 0.406477 9.93055 0.545057C10.3304 0.686705 10.6931 0.908125 10.9931 1.19449C11.2985 1.47523 11.5342 1.81477 11.6847 2.19011C11.8331 2.54807 11.9345 2.95716 11.964 3.55545C11.9935 4.15631 12 4.34756 12 5.875C12 7.40296 11.9929 7.59421 11.964 8.19403C11.9351 8.79233 11.8331 9.20142 11.6847 9.55938C11.5342 9.93476 11.2982 10.2749 10.9931 10.556C10.6931 10.8424 10.3304 11.0633 9.93055 11.2044C9.54873 11.3435 9.11236 11.4386 8.47418 11.4663C7.83382 11.4939 7.62982 11.5 6 11.5C4.37018 11.5 4.16618 11.4934 3.52636 11.4663C2.88818 11.4391 2.45182 11.3435 2.07 11.2044C1.66959 11.0633 1.30681 10.842 1.00691 10.556C0.701662 10.2751 0.465444 9.93517 0.314727 9.55989C0.166909 9.20193 0.0654545 8.79284 0.036 8.19455C0.00654545 7.59369 0 7.40244 0 5.875C0 4.34705 0.0070909 4.1558 0.036 3.55648C0.0649091 2.95716 0.166909 2.54807 0.314727 2.19011C0.465667 1.81481 0.702065 1.47488 1.00745 1.19398C1.30693 0.90787 1.66935 0.68642 2.06945 0.545057C2.45127 0.406477 2.88764 0.311364 3.52582 0.28375H3.52636ZM8.42455 1.29625C7.79182 1.26915 7.602 1.26352 6 1.26352C4.398 1.26352 4.20818 1.26915 3.57545 1.29625C2.99018 1.32131 2.67273 1.41284 2.46109 1.49006C2.18127 1.59233 1.98109 1.71352 1.77109 1.9104C1.57202 2.09196 1.41883 2.31299 1.32273 2.55727C1.24036 2.75568 1.14273 3.0533 1.116 3.60199C1.08709 4.19517 1.08109 4.37313 1.08109 5.875C1.08109 7.37688 1.08709 7.55483 1.116 8.14801C1.14273 8.6967 1.24036 8.99432 1.32273 9.19273C1.41873 9.43665 1.572 9.65807 1.77109 9.8396C1.96473 10.0263 2.20091 10.1699 2.46109 10.2599C2.67273 10.3372 2.99018 10.4287 3.57545 10.4538C4.20818 10.4809 4.39745 10.4865 6 10.4865C7.60255 10.4865 7.79182 10.4809 8.42455 10.4538C9.00982 10.4287 9.32727 10.3372 9.53891 10.2599C9.81873 10.1577 10.0189 10.0365 10.2289 9.8396C10.428 9.65807 10.5813 9.43665 10.6773 9.19273C10.7596 8.99432 10.8573 8.6967 10.884 8.14801C10.9129 7.55483 10.9189 7.37688 10.9189 5.875C10.9189 4.37313 10.9129 4.19517 10.884 3.60199C10.8573 3.0533 10.7596 2.75568 10.6773 2.55727C10.5682 2.29494 10.4389 2.10727 10.2289 1.9104C10.0352 1.72379 9.79947 1.58016 9.53891 1.49006C9.32727 1.41284 9.00982 1.32131 8.42455 1.29625ZM5.23364 7.60903C5.66163 7.77606 6.13821 7.7986 6.58196 7.67281C7.02572 7.54702 7.40912 7.2807 7.6667 6.91933C7.92427 6.55796 8.04003 6.12397 7.99421 5.69147C7.94838 5.25898 7.74382 4.85482 7.41545 4.54801C7.20613 4.35189 6.95302 4.20172 6.67436 4.10831C6.3957 4.01491 6.09842 3.98058 5.80391 4.00782C5.5094 4.03505 5.22499 4.12316 4.97117 4.26581C4.71734 4.40845 4.50041 4.60209 4.33598 4.83277C4.17156 5.06345 4.06374 5.32543 4.02028 5.59987C3.97682 5.8743 3.99881 6.15436 4.08466 6.41987C4.17051 6.68538 4.31808 6.92974 4.51676 7.13537C4.71543 7.341 4.96027 7.50277 5.23364 7.60903ZM3.81927 3.83057C4.10565 3.56209 4.44563 3.34912 4.8198 3.20382C5.19397 3.05852 5.595 2.98374 6 2.98374C6.405 2.98374 6.80603 3.05852 7.1802 3.20382C7.55437 3.34912 7.89435 3.56209 8.18073 3.83057C8.4671 4.09905 8.69427 4.41778 8.84926 4.76856C9.00424 5.11935 9.08401 5.49531 9.08401 5.875C9.08401 6.25469 9.00424 6.63065 8.84926 6.98144C8.69427 7.33222 8.4671 7.65095 8.18073 7.91943C7.60236 8.46165 6.81793 8.76626 6 8.76626C5.18207 8.76626 4.39764 8.46165 3.81927 7.91943C3.24091 7.37722 2.91599 6.64181 2.91599 5.875C2.91599 5.10819 3.24091 4.37279 3.81927 3.83057ZM9.768 3.41432C9.83897 3.35156 9.89578 3.27609 9.93507 3.19237C9.97437 3.10866 9.99535 3.0184 9.99677 2.92695C9.9982 2.8355 9.98003 2.74471 9.94335 2.65996C9.90668 2.57521 9.85224 2.49822 9.78325 2.43354C9.71427 2.36887 9.63214 2.31783 9.54174 2.28345C9.45134 2.24906 9.3545 2.23203 9.25695 2.23337C9.1594 2.2347 9.06313 2.25437 8.97383 2.29121C8.88454 2.32805 8.80404 2.38131 8.73709 2.44784C8.6069 2.57723 8.53562 2.7491 8.53838 2.92695C8.54115 3.10481 8.61774 3.27465 8.7519 3.40043C8.88607 3.52621 9.06723 3.59801 9.25695 3.60061C9.44666 3.6032 9.62998 3.53638 9.768 3.41432Z" fill="#FE3565"/>
</svg>
