<svg width="22" height="21" viewBox="0 0 22 21" fill="none" xmlns="http://www.w3.org/2000/svg">
<path id="Vector" fill-rule="evenodd" clip-rule="evenodd" d="M6.73743 0.859805C7.87277 0.810714 8.23477 0.799805 11.1268 0.799805C14.0189 0.799805 14.3809 0.811623 15.5153 0.859805C16.6497 0.907986 17.424 1.07799 18.1015 1.32435C18.811 1.57617 19.4546 1.9698 19.987 2.4789C20.529 2.97799 20.9471 3.58162 21.2143 4.2489C21.4775 4.88526 21.6575 5.61253 21.7098 6.67617C21.7621 7.74435 21.7737 8.08435 21.7737 10.7998C21.7737 13.5162 21.7611 13.8562 21.7098 14.9225C21.6585 15.9862 21.4775 16.7134 21.2143 17.3498C20.9471 18.0172 20.5283 18.6218 19.987 19.1216C19.4546 19.6307 18.811 20.0234 18.1015 20.2744C17.424 20.5216 16.6497 20.6907 15.5172 20.7398C14.3809 20.7889 14.0189 20.7998 11.1268 20.7998C8.23477 20.7998 7.87277 20.788 6.73743 20.7398C5.60499 20.6916 4.83067 20.5216 4.15315 20.2744C3.44263 20.0234 2.79889 19.63 2.26672 19.1216C1.72506 18.6222 1.3059 18.0179 1.03846 17.3507C0.776157 16.7143 0.596128 15.9871 0.543862 14.9234C0.491595 13.8553 0.47998 13.5153 0.47998 10.7998C0.47998 8.08344 0.492563 7.74344 0.543862 6.67799C0.59516 5.61253 0.776157 4.88526 1.03846 4.2489C1.3063 3.5817 1.72578 2.97736 2.26768 2.47799C2.7991 1.96935 3.4422 1.57566 4.15218 1.32435C4.82971 1.07799 5.60402 0.908896 6.73646 0.859805H6.73743ZM15.4291 2.6598C14.3064 2.61162 13.9696 2.60162 11.1268 2.60162C8.28413 2.60162 7.9473 2.61162 6.82454 2.6598C5.78599 2.70435 5.22267 2.86708 4.84713 3.00435C4.3506 3.18617 3.99538 3.40162 3.62274 3.75162C3.2695 4.0744 2.99765 4.46733 2.82713 4.90162C2.68098 5.25435 2.50772 5.78344 2.4603 6.7589C2.409 7.81344 2.39835 8.12981 2.39835 10.7998C2.39835 13.4698 2.409 13.7862 2.4603 14.8407C2.50772 15.8162 2.68098 16.3453 2.82713 16.698C2.99748 17.1316 3.26946 17.5253 3.62274 17.848C3.96634 18.1798 4.38544 18.4353 4.84713 18.5953C5.22267 18.7325 5.78599 18.8953 6.82454 18.9398C7.9473 18.988 8.28316 18.998 11.1268 18.998C13.9705 18.998 14.3064 18.988 15.4291 18.9398C16.4677 18.8953 17.031 18.7325 17.4066 18.5953C17.9031 18.4134 18.2583 18.198 18.6309 17.848C18.9842 17.5253 19.2562 17.1316 19.4265 16.698C19.5727 16.3453 19.746 15.8162 19.7934 14.8407C19.8447 13.7862 19.8553 13.4698 19.8553 10.7998C19.8553 8.12981 19.8447 7.81344 19.7934 6.7589C19.746 5.78344 19.5727 5.25435 19.4265 4.90162C19.233 4.43526 19.0036 4.10162 18.6309 3.75162C18.2873 3.41987 17.8689 3.16454 17.4066 3.00435C17.031 2.86708 16.4677 2.70435 15.4291 2.6598ZM9.76694 13.8825C10.5264 14.1795 11.3721 14.2195 12.1595 13.9959C12.9469 13.7723 13.6273 13.2988 14.0844 12.6564C14.5414 12.014 14.7468 11.2424 14.6655 10.4735C14.5842 9.70466 14.2212 8.98614 13.6385 8.44071C13.2671 8.09206 12.818 7.82509 12.3235 7.65903C11.829 7.49297 11.3015 7.43195 10.7789 7.48036C10.2563 7.52878 9.75161 7.68542 9.3012 7.93901C8.85079 8.19261 8.46584 8.53685 8.17408 8.94694C7.88232 9.35704 7.69099 9.82279 7.61387 10.3107C7.53676 10.7986 7.57577 11.2964 7.72811 11.7685C7.88045 12.2405 8.14231 12.6749 8.49486 13.0405C8.8474 13.406 9.28186 13.6936 9.76694 13.8825ZM7.25719 7.16526C7.76536 6.68796 8.36864 6.30935 9.0326 6.05104C9.69656 5.79273 10.4082 5.65978 11.1268 5.65978C11.8455 5.65978 12.5571 5.79273 13.2211 6.05104C13.885 6.30935 14.4883 6.68796 14.9965 7.16526C15.5047 7.64255 15.9078 8.20919 16.1828 8.8328C16.4578 9.45642 16.5993 10.1248 16.5993 10.7998C16.5993 11.4748 16.4578 12.1432 16.1828 12.7668C15.9078 13.3904 15.5047 13.9571 14.9965 14.4344C13.9702 15.3983 12.5782 15.9398 11.1268 15.9398C9.67544 15.9398 8.28348 15.3983 7.25719 14.4344C6.2309 13.4704 5.65433 12.163 5.65433 10.7998C5.65433 9.43659 6.2309 8.1292 7.25719 7.16526ZM17.8131 6.42526C17.939 6.31369 18.0398 6.17951 18.1095 6.03069C18.1793 5.88187 18.2165 5.72141 18.219 5.55883C18.2215 5.39625 18.1893 5.23485 18.1242 5.08418C18.0591 4.93351 17.9625 4.79663 17.8401 4.68166C17.7177 4.56668 17.572 4.47595 17.4116 4.41482C17.2512 4.35369 17.0793 4.32342 16.9062 4.32579C16.7331 4.32816 16.5623 4.36313 16.4038 4.42862C16.2454 4.49411 16.1025 4.5888 15.9837 4.70708C15.7527 4.9371 15.6262 5.24264 15.6311 5.55883C15.636 5.87502 15.772 6.17697 16.01 6.40057C16.2481 6.62417 16.5696 6.75183 16.9062 6.75644C17.2429 6.76105 17.5682 6.64225 17.8131 6.42526Z" fill="#D1D1D1"/>
</svg>
