<svg width="10" height="10" viewBox="0 0 10 10" fill="none" xmlns="http://www.w3.org/2000/svg">
<path d="M6.99122 9.14211H2.51844V3.25496L4.85648 0.651033C5.12791 0.348739 5.6016 0.348739 5.87303 0.651033C5.92046 0.703866 5.95943 0.775569 5.98993 0.86614C6.02042 0.956712 6.03567 1.04351 6.03567 1.12653C6.03567 1.23187 6.02377 1.33745 6.00045 1.44017C5.79014 2.36643 6.49269 3.25496 7.44252 3.25496H8.21107C8.42794 3.25496 8.61769 3.34554 8.78034 3.52668C8.94298 3.70782 9.02431 3.91916 9.02431 4.16068V5.06639C9.02431 5.11923 9.01753 5.17584 9.00398 5.23622C8.99042 5.2966 8.97687 5.3532 8.96332 5.40604L7.74346 8.59868C7.68247 8.74964 7.58082 8.87795 7.4385 8.98361C7.29619 9.08928 7.14709 9.14211 6.99122 9.14211ZM3.33167 6.06671C3.33167 7.265 4.30307 8.2364 5.50136 8.2364C6.39898 8.2364 7.20392 7.68366 7.52629 6.84593L8.16011 5.19882C8.1938 5.11129 8.21107 5.01829 8.21107 4.9245C8.21107 4.50265 7.8691 4.16068 7.44725 4.16068H5.18077C4.85763 4.16068 4.6174 3.86174 4.68695 3.54618C4.79881 3.03862 4.16411 2.71279 3.81688 3.09951L3.49367 3.45947C3.38937 3.57564 3.33167 3.72625 3.33167 3.88237V6.06671ZM2.51844 3.25496V3.55075C2.51844 3.88761 2.24536 4.16068 1.90851 4.16068C1.57166 4.16068 1.29859 4.43375 1.29859 4.7706V7.62647C1.29859 7.96332 1.57166 8.2364 1.90851 8.2364C2.24536 8.2364 2.51844 8.50947 2.51844 8.84632V9.14211C1.39559 9.14211 0.485352 8.23187 0.485352 7.10903V5.28805C0.485352 4.16521 1.39559 3.25496 2.51844 3.25496Z" fill="#888888"/>
</svg>
