<svg width="8" height="10" viewBox="0 0 8 10" fill="none" xmlns="http://www.w3.org/2000/svg">
<path d="M2.03913 0.931641H6.11057V6.56461L3.98232 9.05612C3.73941 9.34048 3.29989 9.34048 3.05699 9.05611C3.01381 9.00556 2.97834 8.93696 2.95058 8.85029C2.92282 8.76363 2.90894 8.68058 2.90894 8.60114C2.90894 8.50033 2.91969 8.39969 2.94098 8.30115C3.13378 7.40857 2.45388 6.56461 1.54072 6.56461H0.928738C0.731335 6.56461 0.558607 6.47795 0.410555 6.30463C0.262503 6.1313 0.188477 5.92909 0.188477 5.698V4.83139C0.188477 4.78084 0.194645 4.72667 0.206983 4.6689C0.219321 4.61112 0.231658 4.55696 0.243996 4.50641L1.35439 1.45161C1.40991 1.30717 1.50244 1.1844 1.63199 1.0833C1.76153 0.982193 1.89725 0.931641 2.03913 0.931641ZM5.37031 3.75913C5.37031 2.67617 4.49239 1.79825 3.40943 1.79825C2.58642 1.79825 1.85099 2.31218 1.56806 3.08503L0.973602 4.70884C0.943924 4.78991 0.928738 4.87556 0.928738 4.96189C0.928738 5.36843 1.2583 5.698 1.66484 5.698H3.67719C3.97761 5.698 4.20198 5.9743 4.14034 6.26832C4.03978 6.74792 4.64502 7.04538 4.9633 6.67278L5.23161 6.35867C5.32113 6.25387 5.37031 6.12058 5.37031 5.98276V3.75913ZM6.11057 6.56461V6.25319C6.11057 5.94657 6.35914 5.698 6.66577 5.698C6.97239 5.698 7.22096 5.44943 7.22096 5.1428V2.35345C7.22096 2.04682 6.97239 1.79825 6.66577 1.79825C6.35914 1.79825 6.11057 1.54968 6.11057 1.24306V0.931641C7.13266 0.931641 7.96122 1.76021 7.96122 2.78229V4.71395C7.96122 5.73604 7.13266 6.56461 6.11057 6.56461Z" fill="#888888"/>
</svg>
