<svg width="24" height="21" viewBox="0 0 24 21" fill="none" xmlns="http://www.w3.org/2000/svg">
<g id="Group">
<path id="Vector" d="M24.0002 3.17217C23.1486 3.57307 22.2337 3.84395 21.2719 3.96638C22.2643 3.33556 23.0067 2.34271 23.3607 1.17309C22.4284 1.76143 21.4079 2.17555 20.3438 2.39746C19.6282 1.58577 18.6804 1.04776 17.6475 0.866974C16.6147 0.686188 15.5545 0.872736 14.6316 1.39765C13.7087 1.92257 12.9748 2.75649 12.5438 3.76995C12.1127 4.7834 12.0087 5.91968 12.2478 7.00238C10.3587 6.90161 8.51055 6.37996 6.82342 5.47128C5.1363 4.5626 3.64787 3.2872 2.45475 1.72785C2.04679 2.47547 1.81221 3.34228 1.81221 4.26543C1.81176 5.09648 2.00439 5.9148 2.37303 6.64778C2.74167 7.38076 3.27492 8.00575 3.92545 8.46728C3.171 8.44178 2.4332 8.22521 1.77346 7.8356V7.90061C1.77338 9.06618 2.15289 10.1959 2.8476 11.098C3.54231 12.0002 4.50942 12.6192 5.58483 12.8501C4.88496 13.0513 4.15119 13.0809 3.43896 12.9368C3.74237 13.9397 4.33341 14.8167 5.12931 15.445C5.92521 16.0733 6.88614 16.4215 7.87757 16.4408C6.19456 17.8444 4.11606 18.6058 1.97642 18.6024C1.5974 18.6025 1.21871 18.579 0.842285 18.532C3.01414 20.0155 5.54234 20.8029 8.12439 20.7998C16.8649 20.7998 21.6432 13.109 21.6432 6.43895C21.6432 6.22225 21.6381 6.00338 21.6289 5.78668C22.5583 5.07262 23.3606 4.18839 23.9981 3.17542L24.0002 3.17217Z" fill="#D1D1D1"/>
</g>
</svg>
